<svg xmlns="http://www.w3.org/2000/svg" aria-hidden="true" style="position:absolute;width:0;height:0;overflow:hidden"><defs><symbol id="twitter" viewBox="0 0 32 32"><path d="M19.043 13.55 30.955 0h-2.823l-10.34 11.765L9.529 0H0l12.493 17.792L0 32h2.823l10.922-12.425L22.471 32H32L19.043 13.55zm-3.865 4.397L3.84 2.08h4.336l19.959 27.936h-4.336l-8.621-12.069z"/></symbol><symbol id="linkedin" viewBox="0 0 32 32"><path fill="#fefefe" d="M24.5 0h-17A7.5 7.5 0 0 0 0 7.5v17A7.5 7.5 0 0 0 7.5 32h17a7.5 7.5 0 0 0 7.5-7.5v-17A7.5 7.5 0 0 0 24.5 0z" style="fill:var(--color1, #fefefe)"/><path fill="#0a66c2" d="M24.5 0h-17A7.5 7.5 0 0 0 0 7.5v17A7.5 7.5 0 0 0 7.5 32h17a7.5 7.5 0 0 0 7.5-7.5v-17A7.5 7.5 0 0 0 24.5 0z" style="fill:var(--color2, #0a66c2)"/><path fill="#fefefe" d="M23.089 27.211h3.659a.497.497 0 0 0 .5-.499l.002-7.73c0-4.04-.871-7.146-5.592-7.146a4.904 4.904 0 0 0-4.401 2.404c-.005.008-.011.013-.019.017s-.017.004-.025.002c-.009-.002-.016-.007-.021-.014s-.008-.015-.008-.024v-1.51a.498.498 0 0 0-.5-.5h-3.472a.498.498 0 0 0-.5.5v14.002a.498.498 0 0 0 .5.5h3.659a.498.498 0 0 0 .5-.5v-6.922c0-1.957.371-3.852 2.798-3.852 2.392 0 2.423 2.239 2.423 3.979v6.796a.498.498 0 0 0 .5.5zM4.75 7.454c0 1.483 1.221 2.703 2.704 2.703s2.703-1.221 2.703-2.704S8.936 4.75 7.454 4.75 4.75 5.97 4.75 7.454zm.87 19.757h3.663a.498.498 0 0 0 .5-.5V12.708a.498.498 0 0 0-.5-.5H5.62a.498.498 0 0 0-.5.5v14.003a.498.498 0 0 0 .5.5z" style="fill:var(--color1, #fefefe)"/></symbol><symbol id="telegram" viewBox="0 0 32 32"><path fill="#2aabee" d="M16 0A16.003 16.003 0 0 0-.001 16 16.006 16.006 0 0 0 16 32a16.001 16.001 0 0 0 0-32z" style="fill:var(--color3, #2aabee)"/><path fill="#fefefe" d="M7.242 15.831c4.665-2.032 7.775-3.372 9.33-4.019 4.445-1.848 5.367-2.169 5.97-2.18.133-.002.427.031.62.186.16.131.205.309.227.433.02.124.047.408.025.63-.24 2.53-1.282 8.67-1.813 11.503-.223 1.199-.665 1.601-1.093 1.64-.93.086-1.635-.614-2.535-1.204-1.407-.923-2.203-1.498-3.57-2.398-1.58-1.041-.555-1.613.345-2.548.235-.245 4.33-3.969 4.408-4.306.01-.042.02-.2-.075-.283-.093-.083-.23-.055-.33-.032-.142.032-2.39 1.519-6.75 4.461-.637.439-1.215.652-1.735.641-.57-.012-1.67-.323-2.487-.588-1-.326-1.798-.498-1.728-1.051.035-.288.433-.583 1.19-.884z" style="fill:var(--color1, #fefefe)"/></symbol><symbol id="viber" viewBox="0 0 30 32"><path fill="#7732a9" d="M14.21 0C11.67.037 6.213.459 3.165 3.289.901 5.582.102 8.933.019 13.089c-.083 4.155-.191 11.945 7.232 14.057h.004l-.005 3.221s-.049 1.303.804 1.569c1.024.323 1.627-.667 2.61-1.736a83.414 83.414 0 0 0 1.841-2.107c5.075.435 8.979-.555 9.424-.7 1.023-.336 6.822-1.088 7.766-8.876.975-8.027-.474-13.107-3.084-15.395-.785-.733-3.962-3.067-11.039-3.097 0 0-.521-.033-1.367-.023l.005-.004zm.076 2.257c.718-.005 1.16.023 1.16.023 5.987.027 8.853 1.851 9.519 2.461 2.208 1.913 3.335 6.491 2.512 13.196v.003c-.796 6.504-5.502 6.912-6.369 7.193-.369.12-3.799.983-8.11.699 0 0-3.211 3.92-4.214 4.939-.158.16-.343.223-.464.192-.171-.044-.219-.251-.217-.552l.026-5.357c-6.277-1.76-5.912-8.389-5.839-11.86.071-3.472.716-6.317 2.631-8.231 2.583-2.364 7.215-2.691 9.372-2.707l-.007.001zm.501 3.47a.404.404 0 0 0-.38.403.405.405 0 0 0 .376.407c2.141.013 3.883.716 5.309 2.123 1.414 1.395 2.135 3.291 2.152 5.779.003.223.184.4.405.4.105-.001.206-.045.28-.121s.116-.178.116-.285c-.018-2.645-.814-4.795-2.394-6.352-1.569-1.547-3.55-2.337-5.863-2.353zm-5.219.926a1.286 1.286 0 0 0-.812.156l-.013.003a6.08 6.08 0 0 0-1.511 1.243c-.003.005-.008.005-.011.011-.352.431-.554.851-.606 1.264a.835.835 0 0 0-.009.187c0 .181.029.36.086.533l.017.013c.178.64.623 1.701 1.588 3.472.554 1.024 1.19 2 1.906 2.915.356.459.738.897 1.147 1.312l.174.176c.409.411.844.8 1.297 1.16.905.724 1.869 1.37 2.881 1.929 1.75.977 2.802 1.427 3.432 1.608l.013.019c.229.076.472.101.712.073.409-.048.826-.253 1.25-.613.005 0 .004-.003.011-.007.488-.44.9-.96 1.226-1.531l.004-.013c.297-.576.198-1.123-.237-1.493-.005 0-.92-.773-1.367-1.107a17.54 17.54 0 0 0-1.467-.947c-.672-.38-1.36-.141-1.645.232l-.589.752c-.303.377-.866.328-.866.328-4.112-1.061-5.213-5.273-5.213-5.273s-.049-.568.327-.875l.742-.597c.365-.287.601-.983.224-1.664a16.954 16.954 0 0 0-.936-1.487 37.408 37.408 0 0 0-1.094-1.38 1.084 1.084 0 0 0-.662-.396l.001-.003zm5.918 1.174c-.106-.003-.209.036-.286.11a.407.407 0 0 0 .263.698c1.529.113 2.659.621 3.486 1.533.83.917 1.226 2.032 1.194 3.427a.4.4 0 0 0 .803.016c.033-1.567-.44-2.924-1.406-3.992-.975-1.08-2.342-1.671-4.02-1.795h-.032l-.003.001zm.61 2.173a.402.402 0 0 0-.395.383.407.407 0 0 0 .38.427c.689.037 1.153.233 1.467.563.316.327.511.827.548 1.552.014.101.064.192.141.257a.398.398 0 0 0 .541-.027.41.41 0 0 0 .115-.27c-.04-.859-.283-1.571-.765-2.076-.484-.504-1.177-.765-2.003-.809h-.024l-.005.001z" style="fill:var(--color4, #7732a9)"/></symbol><symbol id="facebook" viewBox="0 0 32 32"><path fill="#1877f2" d="M32 16c0-8.836-7.163-16-16-16S0 7.163 0 16c0 7.986 5.851 14.605 13.5 15.806V20.625H9.437V16H13.5v-3.525c0-4.01 2.389-6.225 6.044-6.225 1.75 0 3.581.313 3.581.313v3.938h-2.017c-1.988 0-2.608 1.233-2.608 2.499v3.001h4.438l-.709 4.625h-3.728v11.181c7.649-1.2 13.5-7.819 13.5-15.806z" style="fill:var(--color5, #1877f2)"/><path fill="#fefefe" d="M22.228 20.625 22.937 16h-4.438v-3.001c0-1.265.62-2.499 2.608-2.499h2.017V6.562s-1.831-.313-3.581-.313c-3.655 0-6.043 2.215-6.043 6.225v3.525H9.437v4.625H13.5v11.181c.827.13 1.663.195 2.5.194s1.673-.065 2.5-.194V20.624h3.728z" style="fill:var(--color1, #fefefe)"/></symbol><symbol id="instagram" viewBox="0 0 32 32"><path d="M24.5 0h-17A7.5 7.5 0 0 0 0 7.5v17A7.5 7.5 0 0 0 7.5 32h17a7.5 7.5 0 0 0 7.5-7.5v-17A7.5 7.5 0 0 0 24.5 0z" style="fill:var(--color6, #000)"/><path d="M24.5 0h-17A7.5 7.5 0 0 0 0 7.5v17A7.5 7.5 0 0 0 7.5 32h17a7.5 7.5 0 0 0 7.5-7.5v-17A7.5 7.5 0 0 0 24.5 0z" style="fill:var(--color6, #000)"/><path fill="#fefefe" d="M16.001 3.5c-3.395 0-3.821.015-5.154.075-1.331.061-2.239.272-3.034.581-.822.319-1.52.746-2.214 1.441S4.476 6.989 4.156 7.811c-.31.795-.521 1.704-.581 3.034-.06 1.333-.075 1.76-.075 5.154s.015 3.82.075 5.153c.061 1.331.272 2.239.581 3.034.319.822.747 1.52 1.442 2.214s1.392 1.123 2.214 1.443c.795.309 1.704.52 3.034.581 1.333.061 1.759.076 5.154.076s3.82-.015 5.153-.076c1.331-.061 2.24-.272 3.035-.581.822-.319 1.518-.747 2.213-1.443s1.122-1.392 1.443-2.214c.307-.795.518-1.704.581-3.034.06-1.333.076-1.758.076-5.153s-.016-3.821-.076-5.154c-.063-1.331-.273-2.239-.581-3.034-.32-.822-.747-1.52-1.443-2.215s-1.391-1.122-2.213-1.441c-.797-.309-1.706-.52-3.037-.581-1.333-.061-1.758-.075-5.154-.075h.004zM14.88 5.753h1.121c3.338 0 3.733.012 5.051.072 1.219.056 1.88.259 2.321.431.583.226.999.497 1.436.935s.708.854.935 1.438c.171.44.375 1.101.43 2.32.06 1.318.073 1.713.073 5.049s-.013 3.732-.073 5.05c-.056 1.219-.259 1.88-.43 2.32-.227.583-.498.999-.935 1.436s-.853.708-1.436.935c-.44.172-1.102.375-2.321.431-1.318.06-1.713.073-5.051.073s-3.733-.013-5.051-.073c-1.219-.056-1.88-.26-2.321-.431-.583-.227-1-.497-1.438-.935s-.708-.853-.935-1.437c-.171-.44-.375-1.102-.431-2.32-.06-1.318-.072-1.713-.072-5.052s.012-3.732.072-5.05c.056-1.219.259-1.88.431-2.321.227-.583.498-1 .936-1.438s.854-.708 1.438-.935c.441-.172 1.102-.375 2.321-.431 1.153-.052 1.6-.068 3.93-.07v.003zm7.794 2.075a1.5 1.5 0 1 0 0 3.001 1.5 1.5 0 0 0 0-3.002zm-6.673 1.753a6.42 6.42 0 1 0 0 12.838 6.42 6.42 0 0 0 0-12.838zm0 2.252a4.167 4.167 0 1 1 0 8.334 4.167 4.167 0 0 1 0-8.334z" style="fill:var(--color1, #fefefe)"/></symbol><symbol id="logo-small" viewBox="0 0 32 32"><path fill="none" stroke="#f3c80b" stroke-linecap="round" stroke-width="1.231" d="M12.466 21.698s1.459.048 2.255.698c.841.686 1.194 1.807 1.194 2.12m.132 6.253s-2.704-1.805-3.602-3.373c-.602-1.049-.934-1.701-1.035-2.88-.097-1.134.116-1.792.483-2.88.395-1.171.925-1.717 1.518-2.817.673-1.247 1.145-1.908 1.725-3.193.623-1.381.949-2.176 1.311-3.631.216-.87.295-1.368.414-2.254.325-2.427.358-4.888.104-6.292s-.785-2.218-.785-2.218m-.266 23.724H6.663c-.483 0-.863 0-1.311-.376s-.38-1.19-.414-2.003l-.015-11.925V4.107c0-.313.096-.852.518-1.064.591-.297 1.173.219 1.622.689S8.216 5.31 8.719 6.424c.437.966.694 1.458.966 2.473.311 1.16.466 1.879.587 3.068.119 1.169.297 2.254-.104 3.037-.362.707-.897.939-1.449 1.503-.459.468-.629 1.151-.629 1.591s.022 1.316.629 1.977 1.731 1.082 2.686 1.279" style="stroke:var(--color7, #f3c80b)"/><path fill="none" stroke="#27a6eb" stroke-linecap="round" stroke-width="1.231" d="M19.655 21.628s-1.894.316-2.511.814c-.85.686-.853 1.377-.853 1.94 0 0-.187 6.275 0 6.383s2.407-1.813 3.316-3.379c.609-1.049.945-1.7 1.047-2.879.098-1.134-.117-1.791-.489-2.879-.4-1.17-.935-1.717-1.536-2.816-.681-1.247-1.158-1.907-1.745-3.192-.631-1.38-.96-2.175-1.326-3.63-.219-.87-.299-1.367-.419-2.253-.329-2.426-.357-4.886-.105-6.289s.781-2.217.781-2.217m.928 23.714h8.573c.489 0 .873 0 1.326-.375s.384-1.189.419-2.003l.016-15.481V4.105c0-.313-.097-.852-.524-1.064-.598-.297-1.187.219-1.64.688s-1.166 1.577-1.675 2.691c-.442.966-.702 1.457-.977 2.472-.314 1.16-.471 1.878-.593 3.066-.12 1.168-.301 2.253.105 3.035.366.707.908.939 1.466 1.502.389.392.645 1.134.654 1.822s-.13 1.297-.654 1.86-1.689.965-2.655 1.162" style="stroke:var(--color8, #27a6eb)"/></symbol><symbol id="Icon-check-min" viewBox="0 0 32 32"><path d="M.366 15.299c.116-.112.253-.201.405-.261a1.302 1.302 0 0 1 .956 0c.151.061.289.149.405.261l8.67 8.465L29.868 5.686a1.263 1.263 0 0 1 .883-.353 1.282 1.282 0 0 1 .883.353c.116.112.208.244.271.39a1.159 1.159 0 0 1 0 .92 1.196 1.196 0 0 1-.271.39L11.685 26.313c-.116.112-.254.201-.405.261a1.298 1.298 0 0 1-.956 0 1.252 1.252 0 0 1-.405-.261L.366 16.999c-.116-.112-.208-.244-.271-.39a1.16 1.16 0 0 1 0-.921c.063-.145.155-.279.271-.39z"/></symbol><symbol id="arrow-right" viewBox="0 0 37 32"><path d="M0 16.614c0-.559.233-1.096.649-1.492s.979-.618 1.567-.618h25.667L18.37 5.45c-.416-.396-.65-.933-.65-1.494s.234-1.097.65-1.494c.416-.396.98-.619 1.569-.619s1.152.223 1.569.619L34.8 15.119c.206.196.37.429.482.685a2.016 2.016 0 0 1 0 1.617 2.105 2.105 0 0 1-.482.685L21.508 30.763c-.416.396-.98.619-1.569.619s-1.152-.223-1.569-.619c-.416-.396-.65-.933-.65-1.493s.234-1.097.65-1.494l9.513-9.054H2.216c-.588 0-1.151-.222-1.567-.618S0 17.172 0 16.612z"/></symbol><symbol id="Icon-check" viewBox="0 0 48 32"><path d="M17.774 31.509c-.161.156-.352.279-.562.363a1.79 1.79 0 0 1-1.326 0 1.747 1.747 0 0 1-.562-.363L.508 16.276c-.325-.314-.507-.74-.507-1.184s.183-.87.507-1.183c.325-.314.766-.49 1.225-.49s.9.176 1.225.49l13.591 14.053L45.043.491c.325-.314.766-.49 1.225-.49s.9.176 1.225.49c.325.314.507.74.507 1.184s-.183.87-.507 1.184L17.774 31.511z"/></symbol><symbol id="arrow-down-big" viewBox="0 0 53 32"><path d="M1.252 2.584a1.992 1.992 0 0 1 2.183-.435c.243.101.464.249.649.435l22.584 22.588L49.252 2.584a2.009 2.009 0 0 1 2.182-.434 1.993 1.993 0 0 1 1.084 1.084 1.995 1.995 0 0 1-.434 2.182l-24 24a2.012 2.012 0 0 1-1.416.588 2 2 0 0 1-1.416-.588l-24-24A2.007 2.007 0 0 1 .664 4a2 2 0 0 1 .588-1.416z"/></symbol><symbol id="point" viewBox="0 0 32 32"><path stroke-width="3.2" d="M28.8 16c0 7.069-5.731 12.8-12.8 12.8S3.2 23.069 3.2 16C3.2 8.931 8.931 3.2 16 3.2S28.8 8.931 28.8 16z"/></symbol><symbol id="download" viewBox="0 0 37 32"><path d="M1.143 20.343a1.14 1.14 0 0 1 1.143 1.143V27.2a2.287 2.287 0 0 0 2.285 2.286H32a2.283 2.283 0 0 0 2.285-2.286v-5.714a1.14 1.14 0 0 1 1.143-1.143 1.14 1.14 0 0 1 1.143 1.143V27.2A4.572 4.572 0 0 1 32 31.771H4.571A4.572 4.572 0 0 1 0 27.2v-5.714a1.14 1.14 0 0 1 1.143-1.143z"/><path d="M17.478 24.809a1.153 1.153 0 0 0 .809.336c.15 0 .299-.03.438-.087s.265-.142.371-.249l6.857-6.857a1.144 1.144 0 1 0-1.618-1.618l-4.905 4.907V1.143A1.14 1.14 0 0 0 18.287 0a1.14 1.14 0 0 0-1.143 1.143v20.098l-4.905-4.907a1.144 1.144 0 1 0-1.618 1.618l6.857 6.857z"/></symbol><symbol id="print" viewBox="0 0 37 32"><path d="M25.143 2.286H11.429a2.287 2.287 0 0 0-2.285 2.285v4.571H6.858V4.571A4.572 4.572 0 0 1 11.429 0h13.714a4.572 4.572 0 0 1 4.571 4.571v4.571h-2.286V4.571a2.287 2.287 0 0 0-2.285-2.285zM32 11.429H4.571a2.287 2.287 0 0 0-2.285 2.285v6.857a2.287 2.287 0 0 0 2.285 2.285h2.286v2.286H4.571A4.572 4.572 0 0 1 0 20.571v-6.857a4.572 4.572 0 0 1 4.571-4.571H32a4.572 4.572 0 0 1 4.571 4.571v6.857A4.572 4.572 0 0 1 32 25.142h-2.286v-2.286H32a2.287 2.287 0 0 0 2.285-2.285v-6.857A2.287 2.287 0 0 0 32 11.429z"/><path d="M25.143 18.286a2.287 2.287 0 0 1 2.285 2.285v6.857a2.287 2.287 0 0 1-2.285 2.285H11.429a2.287 2.287 0 0 1-2.285-2.285v-6.857a2.287 2.287 0 0 1 2.285-2.285h13.714zM11.429 16a4.572 4.572 0 0 0-4.571 4.571v6.857a4.572 4.572 0 0 0 4.571 4.571h13.714a4.572 4.572 0 0 0 4.571-4.571v-6.857A4.572 4.572 0 0 0 25.143 16H11.429zM6.857 14.857A1.14 1.14 0 0 1 5.714 16a1.14 1.14 0 0 1-1.143-1.143 1.14 1.14 0 0 1 1.143-1.143 1.14 1.14 0 0 1 1.143 1.143z"/></symbol><symbol id="down" viewBox="0 0 48 32"><path d="M20.886 30.541 1.032 7.092C-1.311 4.333.593 0 4.149 0h39.707c.796-.001 1.575.236 2.244.681s1.2 1.08 1.529 1.829c.329.749.442 1.58.326 2.393s-.457 1.575-.982 2.194L27.119 30.538c-.389.459-.868.828-1.405 1.08a4.03 4.03 0 0 1-3.424 0 4.144 4.144 0 0 1-1.405-1.08v.004z"/></symbol><symbol id="filter" viewBox="0 0 32 32"><path d="M11.556 22.857c0-.303.117-.594.325-.808s.491-.335.786-.335h6.667c.295 0 .577.12.786.335s.325.505.325.808c0 .303-.117.594-.325.808s-.491.335-.786.335h-6.667c-.295 0-.577-.12-.786-.335s-.325-.505-.325-.808zM7.111 16c0-.303.117-.594.325-.808s.491-.335.786-.335h15.555c.295 0 .577.12.786.335s.325.505.325.808-.117.594-.325.808a1.097 1.097 0 0 1-.786.335H8.221c-.295 0-.577-.12-.786-.335S7.11 16.303 7.11 16zM2.667 9.143c0-.303.117-.594.325-.808S3.483 8 3.778 8h24.445c.295 0 .577.12.786.335s.325.505.325.808c0 .303-.117.594-.325.808s-.491.335-.786.335H3.778c-.295 0-.577-.12-.786-.335s-.325-.505-.325-.808z"/></symbol><symbol id="options" viewBox="0 0 32 32"><path d="M0 5a3.004 3.004 0 0 1 3-3h26a3.004 3.004 0 0 1 3 3v22a3.004 3.004 0 0 1-3 3H3a3.004 3.004 0 0 1-3-3V5zm3-1a.997.997 0 0 0-1 1v22a.997.997 0 0 0 1 1h26a.997.997 0 0 0 1-1V5a.997.997 0 0 0-1-1H3z"/><path d="M10 30V2h2v28h-2zm10 0V2h2v28h-2z"/></symbol><symbol id="person" viewBox="0 0 32 32"><path d="M20 10a4.003 4.003 0 0 1-4 4 4.001 4.001 0 0 1-2.828-6.828 4.001 4.001 0 0 1 5.656 0A4.001 4.001 0 0 1 20 10zm-4 6a5.996 5.996 0 0 0 6-6 6.002 6.002 0 0 0-10.243-4.243A6 6 0 0 0 16 16zm12 10c0 2-2 2-2 2H6s-2 0-2-2 2-8 12-8 12 6 12 8zm-2-.008c-.002-.492-.308-1.972-1.664-3.328C23.032 21.36 20.578 20 16 20c-4.58 0-7.032 1.36-8.336 2.664C6.308 24.02 6.004 25.5 6 25.992h20z"/></symbol><symbol id="headline" viewBox="0 0 110 32"><path fill="#00544d" d="M19.195 28.361v3.227h-16v-3.227h16zM4.005 1.646v29.943H0V1.646h4.005zm13.074 12.873v3.23H3.196v-3.23h13.883zm1.908-12.873v3.246H3.195V1.646h15.794zm18.325 25.623V0h3.858v31.589h-3.525l-.331-4.32zm-15.109-6.56v-.432c0-1.698.208-3.241.624-4.626.427-1.399 1.029-2.599 1.806-3.6a8.197 8.197 0 0 1 2.754-2.28l.046-.021c1.093-.549 2.311-.823 3.653-.823 1.41 0 2.642.247 3.694.741a7.076 7.076 0 0 1 2.697 2.119c.747.917 1.335 2.027 1.765 3.33s.727 2.777.891 4.423v1.89a19.197 19.197 0 0 1-.931 4.538l.039-.136a10.354 10.354 0 0 1-1.781 3.351l.016-.021a7.356 7.356 0 0 1-2.697 2.119c-1.065.48-2.309.72-3.735.72h-.088a7.747 7.747 0 0 1-3.567-.864l.043.02a8.571 8.571 0 0 1-2.785-2.346l-.015-.02a11.393 11.393 0 0 1-1.784-3.496l-.022-.081a15.294 15.294 0 0 1-.625-4.373l.001-.137v.007zm3.863-.432v.434c0 1.109.107 2.151.329 3.125.235.974.594 1.829 1.079 2.571a5.332 5.332 0 0 0 1.847 1.746c.747.411 1.641.617 2.679.617 1.271 0 2.315-.267 3.131-.8.832-.535 1.495-1.241 1.993-2.119s.885-1.831 1.161-2.857v-4.96a10.847 10.847 0 0 0-.753-2.246l.028.067a6.715 6.715 0 0 0-1.21-1.898l.005.006a5.24 5.24 0 0 0-1.773-1.324l-.033-.013c-.704-.329-1.543-.494-2.51-.494-1.051 0-1.959.219-2.72.658a5.32 5.32 0 0 0-1.834 1.748l-.013.021c-.482.741-.843 1.605-1.079 2.592a13.714 13.714 0 0 0-.332 3.038v.091-.005zM76.222 1.646h3.984v20.256c0 2.249-.505 4.121-1.515 5.616a9.49 9.49 0 0 1-3.966 3.347l-.06.024c-1.557.702-3.376 1.111-5.29 1.111l-.134-.001h.007c-2.048 0-3.902-.37-5.561-1.111a9.144 9.144 0 0 1-3.901-3.336l-.021-.035c-.953-1.495-1.431-3.367-1.431-5.616V1.645h3.963v20.256c0 1.563.29 2.853.871 3.867s1.39 1.769 2.427 2.263c1.051.491 2.27.738 3.653.738 1.397 0 2.615-.247 3.653-.738a5.412 5.412 0 0 0 2.448-2.263c.583-1.015.873-2.304.873-3.867V1.645zm21.001 2.651L87.218 31.588h-4.087L94.649 1.645h2.635l-.062 2.651zm8.382 27.292L95.582 4.298l-.062-2.651h2.635l11.559 29.943h-4.11zm-.519-11.086v3.25H88.115v-3.25h16.974z" style="fill:var(--color9, #00544d)"/></symbol><symbol id="emblem" viewBox="0 0 26 32"><path fill="none" stroke="#f3c80b" stroke-linecap="round" stroke-width=".34" d="M1.773 12.41c.033-.83.663-1.593.663-1.593s.696.863.696 1.593m-1.359 0c0 .531.663.929.663.929s.696-.476.696-.929m-1.359 0V8.726m1.358 3.684V8.726m6.548 13.343s1.401.051 2.165.74c.807.728 1.146 1.916 1.146 2.248m.128 6.629s-2.597-1.914-3.459-3.576c-.578-1.113-.897-1.803-.994-3.054-.093-1.203.111-1.9.464-3.054.38-1.242.888-1.821 1.458-2.987.646-1.323 1.1-2.023 1.657-3.386.599-1.464.912-2.307 1.259-3.85.208-.923.284-1.451.398-2.39.313-2.573.344-5.183.099-6.671S13.246.366 13.246.366M2.45 13.684v6.328s-.033 2.124 0 2.987-.033 1.726.398 2.124c.431.398.795.398 1.259.398h8.884M8.66 21.699c-.918-.209-1.997-.656-2.58-1.356s-.604-1.63-.604-2.096c0-.466.164-1.19.604-1.686.53-.597 1.044-.843 1.392-1.593.385-.83.213-1.98.099-3.22-.116-1.261-.265-2.023-.563-3.253-.261-1.076-.509-1.597-.928-2.622-.483-1.181-1.16-2.357-1.59-2.854s-.99-1.045-1.557-.73c-.405.225-.497.797-.497 1.128v6.939m.265 4.609s.076-.732.364-1.062c.356-.408 1.292-.498 1.292-.498s-.074.956-.497 1.294c-.363.29-1.16.265-1.16.265zm0 2.091s.076-.732.364-1.062c.356-.408 1.292-.498 1.292-.498s-.074.956-.497 1.294c-.363.29-1.16.265-1.16.265zm0 2.092s.076-.732.364-1.062c.356-.408 1.292-.498 1.292-.498s-.074.956-.497 1.294c-.363.29-1.16.265-1.16.265zm0 2.091s.076-.732.364-1.062c.356-.408 1.292-.498 1.292-.498s-.074.956-.497 1.294c-.363.29-1.16.265-1.16.265zm0 2.091s.076-.732.364-1.062c.356-.408 1.292-.498 1.292-.498s-.074.956-.497 1.294c-.363.29-1.16.265-1.16.265zm-.663-8.464s-.076-.732-.364-1.062c-.356-.408-1.292-.498-1.292-.498s.075.956.497 1.294c.363.29 1.16.265 1.16.265zm0 2.091s-.076-.732-.364-1.062c-.356-.408-1.292-.498-1.292-.498s.075.956.497 1.294c.363.29 1.16.265 1.16.265zm0 2.091s-.076-.732-.364-1.062c-.356-.408-1.292-.498-1.292-.498s.075.956.497 1.294c.363.29 1.16.265 1.16.265zm0 2.091s-.076-.732-.364-1.062c-.356-.408-1.292-.498-1.292-.498s.075.956.497 1.294c.363.29 1.16.265 1.16.265zm0 2.092s-.076-.732-.364-1.062c-.356-.408-1.292-.498-1.292-.498s.075.956.497 1.294c.363.29 1.16.265 1.16.265z" style="stroke:var(--color7, #f3c80b)"/><path fill="none" stroke="#27a6eb" stroke-linecap="round" stroke-width=".34" d="M24.489 17.449c-.034.829-.672 1.592-.672 1.592s-.705-.862-.705-1.592m1.377 0c0-.531-.672-.929-.672-.929s-.705.475-.705.929m1.377 0v3.682m-1.377-3.682v3.682m-6.385.863s-1.822.335-2.416.863c-.818.727-.821 1.46-.821 2.057 0 0-.18 6.654 0 6.768s2.316-1.922 3.191-3.583c.586-1.112.909-1.802 1.008-3.052.094-1.202-.113-1.899-.47-3.052-.385-1.241-.9-1.82-1.478-2.986-.655-1.322-1.115-2.022-1.68-3.384-.607-1.464-.924-2.306-1.276-3.849-.211-.923-.287-1.45-.403-2.389-.317-2.572-.343-5.181-.101-6.669s.752-2.351.752-2.351M23.87 19.471s.019 2.656-.015 3.518.034 1.725-.403 2.123-.806.398-1.276.398h-8.25m3.693-3.821c.93-.209 2.052-.635 2.556-1.232s.637-1.242.629-1.972c-.008-.73-.255-1.516-.629-1.932-.537-.597-1.058-.843-1.411-1.592-.39-.829-.216-1.98-.101-3.218.117-1.26.268-2.022.571-3.251.265-1.076.516-1.597.941-2.621.49-1.181 1.176-2.356 1.612-2.853s1.003-1.045 1.579-.73c.411.225.504.796.504 1.128v12.641m-.322-1.162s-.077.731-.369 1.061c-.361.408-1.31.498-1.31.498s.076-.956.504-1.294c.368-.29 1.176-.265 1.176-.265zm0-2.09s-.077.731-.369 1.061c-.361.408-1.31.498-1.31.498s.076-.956.504-1.294c.368-.29 1.176-.265 1.176-.265zm0-2.091s-.077.731-.369 1.061c-.361.408-1.31.498-1.31.498s.076-.956.504-1.294c.368-.29 1.176-.265 1.176-.265zm0-2.09s-.077.731-.369 1.061c-.361.408-1.31.498-1.31.498s.076-.956.504-1.294c.368-.29 1.176-.265 1.176-.265zm0-2.09s-.077.731-.369 1.061c-.361.408-1.31.498-1.31.498s.076-.956.504-1.294c.368-.29 1.176-.265 1.176-.265zm.672 8.461s.077.731.369 1.061c.361.408 1.31.498 1.31.498s-.076-.956-.504-1.294c-.368-.29-1.176-.265-1.176-.265zm0-2.091s.077.731.369 1.061c.361.408 1.31.498 1.31.498s-.076-.956-.504-1.294c-.368-.29-1.176-.265-1.176-.265zm0-2.09s.077.731.369 1.061c.361.408 1.31.498 1.31.498s-.076-.956-.504-1.294c-.368-.29-1.176-.265-1.176-.265zm0-2.09s.077.731.369 1.061c.361.408 1.31.498 1.31.498s-.076-.956-.504-1.294c-.368-.29-1.176-.265-1.176-.265zm0-2.091s.077.731.369 1.061c.361.408 1.31.498 1.31.498s-.076-.956-.504-1.294c-.368-.29-1.176-.265-1.176-.265z" style="stroke:var(--color8, #27a6eb)"/></symbol><symbol id="header-right" viewBox="0 0 182 32"><path fill="#27a6eb" d="M166.498 13.37 179.775 0s-8.048 2.737-13.277 4.222c-17.618 5.003-28.15 6.511-48.294 6.509-12.785-.496-20.025-1.243-33.191-4.222-5.12-.893-8.307-1.556-13.442-2.34-5.88-.898-8.565-1.519-14.439-2.463C47.993.237 40.205-.229 32.571.65c-2.727.505-7.136 1.637-7.136 1.637v7.565s4.12-.973 6.804-1.231c6.306-.607 14.318-.625 22.57.528s11.532 2.269 19.085 3.465c15.94 3.935 24.632 5.05 39.83 5.683 5.699.237 9.902.257 15.6 0 9.975-.45 15.268-.818 21.409-1.637 4.993-.666 15.766-3.289 15.766-3.289zM2.699 8.62l8.63 11.259c5.401.766 8.48.742 14.106-.528v-8.322s-3.983 1.813-10.621 1.285S2.699 8.62 2.699 8.62z" style="fill:var(--color8, #27a6eb)"/><path fill="#f3c80b" d="M38.546 26.213c-3.844-2.931-2.157-1.802-6.306-4.222-1.826-1.065-4.149-2.111-6.804-2.639-5.626 1.27-8.705 1.293-14.106.528L2.7 26.213c15.348 2.787 35.183 1.407 35.846 0zM166.498 13.37s-10.773 2.624-15.766 3.289c-6.141.819-11.434 1.186-21.409 1.637-5.698.257-9.901.237-15.6 0-15.198-.633-23.889-1.748-39.83-5.683-7.553-1.196-10.832-2.312-19.085-3.465s-16.264-1.135-22.57-.528c-2.685.259-6.804 1.231-6.804 1.231v9.5c5.502-1.27 8.408-1.711 13.111-1.759 6.97 0 10.621.352 18.255 1.231 6.361.733 10.496 1.677 16.264 2.639l14.77 2.463c5.768.962 9.494 1.51 15.599 2.287 11.191 1.193 16.848 1.497 25.889 1.407 19.421-1.265 29.445-3.439 46.136-9.324l-8.961-4.926z" style="fill:var(--color7, #f3c80b)"/><path fill="#c2a009" d="M38.546 26.213c.664-3.343 0-8.62 0-8.62-4.703.048-7.609.489-13.111 1.759 2.655.528 4.979 1.574 6.804 2.639 4.149 2.42 2.462 1.291 6.306 4.222z" style="fill:var(--color10, #c2a009)"/></symbol><symbol id="header-left" viewBox="0 0 182 32"><path fill="#27a6eb" d="M15.763 13.37 2.487 0s8.048 2.737 13.276 4.222c17.618 5.003 28.15 6.511 48.293 6.509 12.785-.496 20.025-1.243 33.191-4.222 5.121-.893 8.307-1.556 13.443-2.34 5.88-.898 8.565-1.519 14.438-2.463C134.267.237 142.055-.229 149.689.65c2.728.505 7.136 1.637 7.136 1.637v7.565s-4.12-.973-6.804-1.231c-6.306-.607-14.318-.625-22.57.528s-11.532 2.269-19.085 3.465c-15.939 3.935-24.632 5.05-39.829 5.683-5.699.237-9.902.257-15.6 0-9.975-.45-15.268-.818-21.408-1.637-4.993-.666-15.766-3.289-15.766-3.289zM179.562 8.62l-8.63 11.259c-5.402.766-8.48.742-14.106-.528v-8.322s3.983 1.813 10.621 1.285c6.639-.528 12.115-3.694 12.115-3.694z" style="fill:var(--color8, #27a6eb)"/><path fill="#f3c80b" d="M143.715 26.213c3.844-2.931 2.157-1.802 6.306-4.222 1.825-1.065 4.149-2.111 6.804-2.639 5.626 1.27 8.705 1.293 14.106.528l8.63 6.333c-15.347 2.787-35.183 1.407-35.846 0zM15.763 13.37s10.773 2.624 15.766 3.289c6.14.819 11.433 1.186 21.408 1.637 5.698.257 9.901.237 15.6 0 15.198-.633 23.89-1.748 39.829-5.683 7.553-1.196 10.833-2.312 19.085-3.465s16.264-1.135 22.57-.528c2.685.259 6.804 1.231 6.804 1.231v9.5c-5.502-1.27-8.408-1.711-13.11-1.759-6.97 0-10.621.352-18.255 1.231-6.361.733-10.495 1.677-16.264 2.639l-14.77 2.463c-5.768.962-9.494 1.51-15.6 2.287-11.19 1.193-16.848 1.497-25.889 1.407-19.421-1.265-29.445-3.439-46.136-9.324l8.962-4.926z" style="fill:var(--color7, #f3c80b)"/><path fill="#c2a009" d="M143.715 26.213c-.664-3.343 0-8.62 0-8.62 4.703.048 7.608.489 13.11 1.759-2.655.528-4.979 1.574-6.804 2.639-4.149 2.42-2.462 1.291-6.306 4.222z" style="fill:var(--color10, #c2a009)"/></symbol><symbol id="copyright" viewBox="0 0 30 32"><path d="M15.238.762A15.241 15.241 0 0 0 1.16 10.169a15.24 15.24 0 0 0 11.105 20.776A15.24 15.24 0 0 0 30.476 16 15.252 15.252 0 0 0 15.238.762zm0 29.257a14.017 14.017 0 0 1-13.75-16.754A14.016 14.016 0 0 1 12.503 2.25 14.02 14.02 0 0 1 29.257 16a14.03 14.03 0 0 1-14.019 14.019zm5.364-9.995a6.709 6.709 0 0 1-7.484 2.336A6.702 6.702 0 0 1 8.535 16a6.704 6.704 0 0 1 12.067-4.024.615.615 0 0 1 .037.677.612.612 0 0 1-1.014.055 5.48 5.48 0 0 0-8.839.084 5.489 5.489 0 0 0 2.716 8.413 5.487 5.487 0 0 0 6.123-1.913.608.608 0 0 1 .854-.121.608.608 0 0 1 .121.854z"/></symbol><symbol id="arrow-down" viewBox="0 0 32 32"><path d="M3.292 9.292A.991.991 0 0 1 4 8.999a1.002 1.002 0 0 1 .708.293L16 20.586 27.292 9.292A.991.991 0 0 1 28 8.999a1.006 1.006 0 0 1 .925.618 1.01 1.01 0 0 1 0 .766c-.05.121-.124.232-.217.325l-12 12a.991.991 0 0 1-.708.293 1.002 1.002 0 0 1-.708-.293l-12-12A.991.991 0 0 1 2.999 10a1.002 1.002 0 0 1 .293-.708z"/></symbol><symbol id="menu" viewBox="0 0 32 32"><path d="M19.556 28.308c0 .979-.375 1.918-1.041 2.611S16.944 32 16.001 32s-1.847-.389-2.514-1.081c-.667-.692-1.041-1.632-1.041-2.611s.375-1.919 1.041-2.611c.667-.692 1.571-1.081 2.514-1.081s1.847.389 2.514 1.081a3.764 3.764 0 0 1 1.041 2.611zm0-12.308c0 .979-.375 1.918-1.041 2.611s-1.571 1.081-2.514 1.081-1.847-.389-2.514-1.081c-.667-.692-1.041-1.632-1.041-2.611s.375-1.918 1.041-2.611c.667-.692 1.571-1.081 2.514-1.081s1.847.389 2.514 1.081A3.764 3.764 0 0 1 19.556 16zm0-12.308c0 .979-.375 1.918-1.041 2.611s-1.571 1.081-2.514 1.081-1.847-.389-2.514-1.081c-.667-.692-1.041-1.632-1.041-2.611s.375-1.918 1.041-2.611C14.154.389 15.058 0 16.001 0s1.847.389 2.514 1.081a3.764 3.764 0 0 1 1.041 2.611z"/></symbol><symbol id="search" viewBox="0 0 32 32"><path d="M20.882 20.884a2.005 2.005 0 0 1 2.181-.434c.243.1.463.248.649.434l7.7 7.7a2 2 0 0 1-2.828 2.83l-7.7-7.7a2.005 2.005 0 0 1-.434-2.181c.101-.243.248-.463.434-.649h-.002z"/><path d="M13 24a11.008 11.008 0 0 0 7.778-3.222A10.999 10.999 0 0 0 13 1.999a11 11 0 0 0 0 22zm13-11A13 13 0 1 1 .002 13 13 13 0 0 1 26 13z"/></symbol><symbol id="trash" viewBox="0 0 32 32"><path d="M12.889 10.667c.236 0 .462.11.629.307s.26.463.26.741v12.571c0 .278-.094.544-.26.741s-.393.307-.629.307-.462-.11-.629-.307a1.149 1.149 0 0 1-.26-.741V11.715c0-.278.094-.544.26-.741s.393-.307.629-.307zM20 11.714c0-.278-.094-.544-.26-.741s-.393-.307-.629-.307-.462.11-.629.307c-.167.196-.26.463-.26.741v12.571c0 .278.094.544.26.741s.393.307.629.307.462-.11.629-.307c.167-.197.26-.463.26-.741V11.714z"/><path d="M29 6a2 2 0 0 1-2 2h-1v18a4.003 4.003 0 0 1-4 4H10a4.001 4.001 0 0 1-4-4V8H5a2 2 0 0 1-2-2V4a2 2 0 0 1 2-2h7a2 2 0 0 1 2-2h4a2 2 0 0 1 2 2h7a2 2 0 0 1 2 2v2zM8.236 8 8 8.118V26a2 2 0 0 0 2 2h12a2 2 0 0 0 2-2V8.118L23.764 8H8.236zM5 6V4h22v2H5z"/></symbol><symbol id="pencil" viewBox="0 0 32 32"><path d="M24.299.265a.991.991 0 0 1 .708-.293 1.006 1.006 0 0 1 .708.293l6 6a.991.991 0 0 1 .293.708 1.002 1.002 0 0 1-.293.708l-20 20c-.096.095-.21.17-.336.22l-10 4a1.004 1.004 0 0 1-1.352-.727.994.994 0 0 1 .051-.573l4-10c.05-.126.125-.24.22-.336l20-20zm-1.878 4.708 4.586 4.586 2.586-2.586-4.586-4.586-2.586 2.586zm3.172 6-4.586-4.586-13 13v.586h1a.997.997 0 0 1 1 1v1h1a.997.997 0 0 1 1 1v1h.586l13-13zM6.071 21.323l-.212.212-3.056 7.642 7.642-3.056.212-.212a.996.996 0 0 1-.65-.936v-1h-1a.997.997 0 0 1-1-1v-1h-1a.995.995 0 0 1-.936-.65z"/></symbol><symbol id="link" viewBox="0 0 32 32"><path d="m8.034 12.763-3.272 3.399a7.58 7.58 0 0 0-2.095 5.255c0 1.971.754 3.861 2.095 5.255s3.161 2.177 5.059 2.177a7.022 7.022 0 0 0 5.059-2.177l4.359-4.531c.809-.841 1.412-1.871 1.759-3.003s.427-2.336.233-3.507c-.193-1.171-.655-2.278-1.345-3.226s-1.589-1.71-2.622-2.223l-1.397 1.452a2.47 2.47 0 0 0-.367.493c.798.238 1.522.689 2.1 1.307s.992 1.382 1.2 2.217c.207.835.201 1.712-.017 2.543s-.643 1.59-1.23 2.199l-4.357 4.528c-.895.93-2.109 1.452-3.374 1.452s-2.479-.522-3.374-1.452c-.895-.93-1.398-2.19-1.398-3.505s.503-2.575 1.398-3.505l1.891-1.962a10.307 10.307 0 0 1-.305-3.188v.002z"/><path d="M12.571 8.374c-.809.841-1.412 1.871-1.759 3.004s-.427 2.336-.233 3.508c.193 1.172.655 2.278 1.345 3.226s1.589 1.711 2.622 2.223l1.848-1.923c-.809-.225-1.546-.668-2.137-1.283s-1.017-1.381-1.234-2.221c-.216-.84-.216-1.725 0-2.565s.642-1.606 1.234-2.221l4.356-4.529c.895-.93 2.109-1.452 3.374-1.452s2.479.522 3.374 1.452c.895.93 1.398 2.191 1.398 3.506s-.503 2.576-1.398 3.506l-1.891 1.962c.267 1.041.37 2.118.305 3.188l3.272-3.399c1.342-1.394 2.095-3.285 2.095-5.256s-.754-3.862-2.095-5.256c-1.342-1.394-3.161-2.177-5.059-2.177s-3.717.783-5.059 2.177L12.57 8.373z"/></symbol><symbol id="plus" viewBox="0 0 32 32"><path stroke-linecap="round" stroke-linejoin="round" stroke-width="2.667" d="M16 2.667V16m0 0v13.333M16 16h13.333M16 16H2.667"/></symbol><symbol id="graph" viewBox="0 0 32 32"><path d="M0 0h2v30h30v2H0V0zm20 7a.997.997 0 0 1 1-1h8a.997.997 0 0 1 1 1v8a.997.997 0 0 1-1 1 .997.997 0 0 1-1-1V9.8l-7.226 8.834a1.002 1.002 0 0 1-1.132.3.988.988 0 0 1-.347-.226l-5.174-5.174-7.312 10.054a1 1 0 0 1-1.616-1.177l8-11a1.005 1.005 0 0 1 .73-.41 1.01 1.01 0 0 1 .786.29l5.218 5.22 6.964-8.512h-5.89a.997.997 0 0 1-1-1z"/></symbol><symbol id="setting" viewBox="0 0 32 32"><path d="M17.689 3.267c-.492-1.67-2.856-1.67-3.348 0l-.188.638a3.737 3.737 0 0 1-2.16 2.401 3.752 3.752 0 0 1-3.225-.171l-.584-.32c-1.528-.83-3.2.84-2.368 2.37l.318.584a3.756 3.756 0 0 1 .171 3.225 3.748 3.748 0 0 1-2.401 2.16l-.638.188c-1.67.492-1.67 2.856 0 3.348l.638.188a3.748 3.748 0 0 1 2.23 5.385l-.32.582c-.83 1.528.84 3.2 2.37 2.368l.584-.318a3.74 3.74 0 0 1 3.225-.17 3.738 3.738 0 0 1 2.159 2.402l.188.636c.492 1.67 2.856 1.67 3.348 0l.188-.638a3.748 3.748 0 0 1 5.385-2.231l.582.32c1.528.83 3.2-.84 2.368-2.37l-.318-.582a3.757 3.757 0 0 1 .786-4.579c.416-.373.91-.65 1.446-.807l.636-.188c1.67-.492 1.67-2.856 0-3.348l-.638-.188a3.737 3.737 0 0 1-2.401-2.16 3.752 3.752 0 0 1 .171-3.225l.32-.584c.83-1.528-.84-3.2-2.37-2.368l-.582.318c-.491.268-1.036.423-1.594.452s-1.116-.066-1.633-.279a3.745 3.745 0 0 1-2.161-2.404l-.188-.638h.002zm-5.266-.566c1.054-3.58 6.13-3.58 7.184 0l.188.638a1.754 1.754 0 0 0 1.006 1.12 1.756 1.756 0 0 0 1.504-.079l.584-.32c3.28-1.784 6.868 1.802 5.08 5.082l-.318.584a1.756 1.756 0 0 0 .367 2.134c.194.174.424.303.674.376l.638.188c3.58 1.054 3.58 6.13 0 7.184l-.638.188a1.754 1.754 0 0 0-1.12 1.006 1.756 1.756 0 0 0 .079 1.504l.32.584c1.786 3.28-1.804 6.868-5.082 5.08l-.584-.318a1.746 1.746 0 0 0-2.51 1.041l-.188.638c-1.054 3.58-6.13 3.58-7.184 0l-.188-.638a1.754 1.754 0 0 0-1.006-1.12 1.756 1.756 0 0 0-1.504.079l-.584.32c-3.28 1.786-6.866-1.804-5.08-5.082l.318-.584a1.746 1.746 0 0 0-1.041-2.51l-.638-.188c-3.58-1.054-3.58-6.13 0-7.184l.638-.188a1.754 1.754 0 0 0 1.12-1.006 1.756 1.756 0 0 0-.079-1.504l-.32-.584c-1.784-3.28 1.804-6.866 5.082-5.08l.584.318a1.746 1.746 0 0 0 2.51-1.041l.188-.638z"/><path d="M16 11.508A4.489 4.489 0 0 0 11.508 16 4.489 4.489 0 0 0 16 20.492 4.489 4.489 0 0 0 20.492 16 4.489 4.489 0 0 0 16 11.508zM9.508 16a6.49 6.49 0 1 1 6.49 6.492A6.49 6.49 0 0 1 9.506 16z"/></symbol><symbol id="star" viewBox="0 0 32 32"><path d="M5.729 29.7c-.156.888.72 1.582 1.492 1.186l8.78-4.512 8.778 4.512c.772.396 1.648-.298 1.492-1.184l-1.66-9.46 7.046-6.712c.658-.628.316-1.776-.566-1.9l-9.796-1.392-4.368-8.654A1.023 1.023 0 0 0 16 .998a1.023 1.023 0 0 0-.927.586l-4.368 8.656-9.796 1.392c-.882.124-1.224 1.272-.566 1.9l7.046 6.712-1.66 9.46V29.7zm9.81-5.534-7.372 3.788 1.388-7.914a1.124 1.124 0 0 0-.326-1.01l-5.812-5.54 8.104-1.152a1.05 1.05 0 0 0 .786-.576l3.694-7.316 3.692 7.316a1.038 1.038 0 0 0 .786.576l8.104 1.15-5.812 5.54a1.127 1.127 0 0 0-.326 1.012l1.388 7.914-7.372-3.788a1.015 1.015 0 0 0-.922 0z"/></symbol><symbol id="exit" viewBox="0 0 28 32"><path d="M6.041 6.907a1.391 1.391 0 0 1 0 1.968 11.132 11.132 0 0 0 7.871 18.999 11.128 11.128 0 0 0 10.916-13.301 11.132 11.132 0 0 0-3.045-5.699 1.392 1.392 0 0 1 1.968-1.968 13.911 13.911 0 0 1-2.111 21.405 13.909 13.909 0 0 1-20.582-6.243A13.91 13.91 0 0 1 4.072 6.906a1.391 1.391 0 0 1 1.968 0z"/><path d="M13.92.044c.768 0 1.391.623 1.391 1.391v13.913a1.391 1.391 0 0 1-2.782 0V1.435c0-.768.623-1.391 1.391-1.391z"/></symbol><symbol id="close" viewBox="0 0 32 32"><path d="M28.776 5.918 18.694 16l10.082 10.082a1.905 1.905 0 1 1-2.694 2.694L16 18.694 5.918 28.776a1.905 1.905 0 1 1-2.694-2.694L13.306 16 3.224 5.918a1.905 1.905 0 1 1 2.694-2.694L16 13.306 26.082 3.224a1.905 1.905 0 1 1 2.694 2.694zM18.694 16 16 13.306 13.306 16 16 18.694 18.694 16z"/><path d="M18.694 16 16 13.306 13.306 16 16 18.694 18.694 16z"/></symbol><symbol id="bell" viewBox="0 0 32 32"><path fill="#e9a116" style="fill: var(--color2, #e9a116)" d="M16 32c1.061 0 2.078-0.421 2.828-1.172s1.172-1.768 1.172-2.828h-8c0 1.061 0.421 2.078 1.172 2.828s1.768 1.172 2.828 1.172z"></path><path fill="#e9a116" style="fill: var(--color2, #e9a116)" d="M16 3.836l-1.594 0.322c-1.808 0.368-3.433 1.35-4.601 2.779s-1.805 3.218-1.805 5.063c0 1.256-0.268 4.394-0.918 7.484-0.32 1.534-0.752 3.132-1.326 4.516h20.488c-0.574-1.384-1.004-2.98-1.326-4.516-0.65-3.090-0.918-6.228-0.918-7.484-0.001-1.845-0.639-3.633-1.806-5.062s-2.792-2.41-4.6-2.778l-1.594-0.326v0.002zM28.44 24c0.446 0.894 0.962 1.602 1.56 2h-28c0.598-0.398 1.114-1.106 1.56-2 1.8-3.6 2.44-10.24 2.44-12 0-4.84 3.44-8.88 8.010-9.802-0.028-0.278 0.003-0.559 0.090-0.824s0.229-0.51 0.417-0.717c0.188-0.207 0.416-0.373 0.672-0.486s0.532-0.172 0.811-0.172c0.279 0 0.556 0.059 0.811 0.172s0.484 0.279 0.672 0.486c0.187 0.207 0.329 0.452 0.417 0.717s0.118 0.546 0.090 0.824c2.261 0.46 4.293 1.687 5.753 3.473s2.257 4.022 2.257 6.329c0 1.76 0.64 8.4 2.44 12z"></path></symbol><symbol id="exclamation" viewBox="0 0 32 32"><path fill="#f20a0a" style="fill: var(--color1, #f20a0a)" d="M12.022 3.99c-0.059-0.503 0-1.012 0.173-1.494s0.456-0.925 0.831-1.301c0.375-0.376 0.834-0.677 1.346-0.883s1.067-0.312 1.627-0.312 1.115 0.106 1.627 0.312c0.512 0.206 0.971 0.507 1.346 0.883s0.658 0.82 0.831 1.301c0.173 0.482 0.232 0.99 0.173 1.494l-1.547 13.994c-0.052 0.55-0.331 1.062-0.781 1.435s-1.039 0.58-1.65 0.58-1.2-0.207-1.65-0.58c-0.45-0.373-0.729-0.885-0.781-1.435l-1.547-13.994z"></path><path fill="#f20a0a" style="fill: var(--color1, #f20a0a)" d="M20 28c0 2.209-1.791 4-4 4s-4-1.791-4-4c0-2.209 1.791-4 4-4s4 1.791 4 4z"></path></symbol><symbol id="eye" viewBox="0 0 43 32"><path fill="#00544d" style="fill: var(--color1, #00544d)" d="M3.806 16c0.194-0.336 0.452-0.764 0.771-1.258 0.82-1.269 2.033-2.957 3.609-4.638 3.184-3.396 7.636-6.549 13.148-6.549s9.964 3.153 13.148 6.549c1.576 1.681 2.789 3.368 3.609 4.637 0.319 0.494 0.577 0.922 0.771 1.258-0.194 0.336-0.452 0.764-0.771 1.258-0.82 1.269-2.033 2.957-3.609 4.638-3.184 3.396-7.636 6.549-13.148 6.549s-9.964-3.153-13.148-6.549c-1.576-1.681-2.79-3.369-3.609-4.638-0.319-0.494-0.577-0.922-0.771-1.258zM40.889 16c1.59-0.795 1.59-0.796 1.59-0.796l-0.003-0.006-0.006-0.012-0.020-0.040c-0.017-0.033-0.041-0.079-0.072-0.138-0.062-0.117-0.151-0.283-0.269-0.491-0.234-0.417-0.579-1.004-1.032-1.704-0.903-1.398-2.244-3.266-4.002-5.14-3.483-3.715-8.809-7.673-15.741-7.673s-12.259 3.958-15.741 7.673c-1.758 1.875-3.099 3.743-4.002 5.14-0.452 0.701-0.797 1.287-1.032 1.704-0.117 0.208-0.207 0.375-0.269 0.491-0.031 0.058-0.055 0.105-0.072 0.138l-0.020 0.040-0.008 0.016c-0 0.001-0.001 0.003 1.589 0.798l-1.59-0.795c-0.25 0.5-0.25 1.090 0 1.59l1.59-0.795c-1.59 0.795-1.59 0.794-1.59 0.795l0.004 0.007 0.006 0.012 0.020 0.040c0.017 0.033 0.041 0.079 0.072 0.138 0.062 0.117 0.152 0.283 0.269 0.491 0.234 0.417 0.579 1.004 1.032 1.704 0.903 1.398 2.244 3.266 4.002 5.14 3.483 3.715 8.809 7.673 15.741 7.673s12.259-3.958 15.741-7.673c1.758-1.875 3.099-3.743 4.002-5.14 0.452-0.7 0.797-1.287 1.032-1.704 0.117-0.208 0.207-0.375 0.269-0.491 0.031-0.058 0.055-0.105 0.072-0.138l0.020-0.040 0.006-0.012 0.002-0.004c0-0.001 0.001-0.003-1.589-0.798zM40.889 16l1.59 0.795c0.25-0.5 0.25-1.091-0.001-1.591l-1.59 0.796z"></path><path fill="#00544d" style="fill: var(--color1, #00544d)" d="M21.333 12.444c-1.964 0-3.556 1.592-3.556 3.556s1.592 3.556 3.556 3.556 3.556-1.592 3.556-3.556c0-1.964-1.592-3.556-3.556-3.556zM14.222 16c0-3.927 3.184-7.111 7.111-7.111s7.111 3.184 7.111 7.111c0 3.927-3.184 7.111-7.111 7.111s-7.111-3.184-7.111-7.111z"></path></symbol><symbol id="eye-close" viewBox="0 0 32 32"><path fill="#00544d" style="fill: var(--color1, #00544d)" d="M2.276 0.391c-0.521-0.521-1.365-0.521-1.886 0s-0.521 1.365 0 1.886l5.701 5.701c0.383-0.33 0.777-0.649 1.179-0.957 0.532-0.406 1.27-0.351 1.736 0.101l-6.731-6.731z"></path><path fill="#00544d" style="fill: var(--color1, #00544d)" d="M13.504 6.952c0.817-0.191 1.654-0.287 2.493-0.285h0.003c4.134 0 7.473 2.365 9.861 4.912 1.182 1.261 2.092 2.526 2.707 3.478 0.238 0.369 0.431 0.689 0.577 0.94-0.69 1.201-1.485 2.338-2.378 3.398-0.474 0.563-0.402 1.405 0.162 1.879s1.405 0.402 1.879-0.162c1.165-1.385 2.183-2.887 3.036-4.483 0.204-0.381 0.21-0.838 0.017-1.225l-1.193 0.596c1.193-0.596 1.191-0.598 1.191-0.598l-0.001-0.003-0.005-0.009-0.015-0.030-0.023-0.044-0.031-0.059c-0.046-0.088-0.114-0.212-0.202-0.369-0.176-0.313-0.435-0.753-0.774-1.278-0.677-1.048-1.683-2.449-3.002-3.855-2.612-2.786-6.606-5.754-11.804-5.755-1.045-0.002-2.088 0.117-3.105 0.355-0.717 0.168-1.162 0.885-0.994 1.602s0.885 1.162 1.602 0.994zM16.002 4h0.001l-0.003 1.333v-1.333h0.002zM30.667 16c-1.193 0.596-1.192 0.597-1.192 0.597l1.192-0.597zM29.474 16.597l-0.001-0.002-0.008-0.016c-0.008-0.016-0.021-0.041-0.039-0.075-0.036-0.069-0.093-0.173-0.169-0.309-0.034-0.060-0.072-0.126-0.113-0.198 0 0 0.321 0.582 0.33 0.6zM9.036 7.15l15.811 15.811c0.006 0.005 0.011 0.011 0.017 0.016 0.004 0.004 0.008 0.008 0.012 0.012l6.733 6.733c0.521 0.521 0.521 1.365 0 1.886s-1.365 0.521-1.886 0l-5.956-5.956c-2.307 1.484-4.988 2.301-7.746 2.346l-0.022 0c-5.199 0-9.194-2.969-11.806-5.755-1.318-1.406-2.325-2.807-3.002-3.855-0.339-0.525-0.598-0.965-0.774-1.278-0.088-0.156-0.155-0.281-0.202-0.369-0.023-0.044-0.041-0.079-0.054-0.103l-0.015-0.030-0.005-0.009-0.002-0.003c0 0-0.001-0.002 1.192-0.598l-1.193 0.596c-0.194-0.387-0.187-0.845 0.018-1.227 1.509-2.812 3.521-5.317 5.933-7.393l1.891 1.891c-2.049 1.733-3.784 3.809-5.126 6.136 0.145 0.251 0.338 0.571 0.576 0.939 0.615 0.952 1.525 2.217 2.707 3.478 2.386 2.545 5.721 4.908 9.85 4.912 2.061-0.036 4.069-0.597 5.839-1.619l-3.096-3.095c-0.212 0.133-0.433 0.251-0.662 0.353-0.654 0.291-1.36 0.448-2.077 0.461s-1.427-0.119-2.091-0.387c-0.664-0.268-1.267-0.667-1.774-1.174s-0.906-1.11-1.174-1.774-0.4-1.375-0.387-2.091c0.013-0.716 0.169-1.422 0.461-2.077 0.102-0.229 0.22-0.451 0.353-0.662l-3.399-3.399c0.296-0.25 0.598-0.493 0.906-0.729 0.585-0.447 0.697-1.284 0.251-1.869-0.033-0.043-0.067-0.083-0.104-0.12zM9.036 7.15l-0.029-0.029c0.010 0.009 0.019 0.019 0.029 0.029zM13.371 15.256c-0.086 0.257-0.132 0.525-0.137 0.797-0.006 0.358 0.060 0.714 0.194 1.046s0.334 0.634 0.587 0.887c0.253 0.253 0.555 0.453 0.887 0.587s0.688 0.2 1.046 0.194c0.271-0.005 0.54-0.051 0.797-0.137l-3.373-3.373z"></path><path fill="#00544d" style="fill: var(--color1, #00544d)" d="M8.889 9.14c0.585-0.447 0.697-1.284 0.251-1.869-0.033-0.043-0.067-0.083-0.104-0.12l-0.029-0.029c-0.466-0.452-1.205-0.507-1.736-0.101-0.403 0.308-0.796 0.627-1.179 0.957l1.891 1.892c0.296-0.25 0.598-0.493 0.906-0.729z"></path></symbol></defs></svg>