<svg xmlns="http://www.w3.org/2000/svg" aria-hidden="true" style="position:absolute;width:0;height:0;overflow:hidden"><defs><symbol id="emblem" viewBox="0 0 26 32"><path fill="none" stroke="#f3c80b" stroke-linecap="round" stroke-width=".314" d="M1.708 12.431c.033-.831.664-1.596.664-1.596s.697.864.697 1.596m-1.361 0c0 .532.664.931.664.931s.697-.476.697-.931m-1.361 0v-3.69m1.361 3.69v-3.69m6.559 13.365s1.403.051 2.169.741c.809.729 1.148 1.92 1.148 2.252m.128 6.641s-2.601-1.918-3.465-3.582c-.579-1.115-.899-1.806-.996-3.059-.093-1.205.111-1.904.465-3.059.38-1.244.889-1.824 1.46-2.992.647-1.325 1.102-2.026 1.66-3.391.6-1.467.913-2.311 1.261-3.857.208-.925.284-1.453.398-2.394.313-2.578.344-5.192.1-6.683S13.201.367 13.201.367M2.386 13.707v6.338s-.033 2.128 0 2.992-.033 1.729.398 2.128c.431.399.797.399 1.261.399h8.899m-4.337-3.828c-.919-.21-2-.657-2.584-1.359s-.605-1.633-.605-2.1c0-.467.164-1.192.605-1.689.531-.598 1.046-.845 1.394-1.596.386-.831.214-1.984.1-3.225-.116-1.263-.265-2.026-.564-3.258-.261-1.078-.509-1.6-.929-2.627-.484-1.183-1.162-2.361-1.593-2.859s-.991-1.047-1.56-.731c-.406.225-.498.798-.498 1.13v6.951m.264 4.618s.076-.733.365-1.064c.357-.408 1.294-.499 1.294-.499s-.075.958-.498 1.296c-.364.291-1.162.266-1.162.266zm0 2.094s.076-.733.365-1.064c.357-.408 1.294-.499 1.294-.499s-.075.958-.498 1.296c-.364.291-1.162.266-1.162.266zm0 2.095s.076-.733.365-1.064c.357-.408 1.294-.499 1.294-.499s-.075.958-.498 1.296c-.364.291-1.162.266-1.162.266zm0 2.095s.076-.733.365-1.064c.357-.408 1.294-.499 1.294-.499s-.075.958-.498 1.296c-.364.291-1.162.266-1.162.266zm0 2.095s.076-.733.365-1.064c.357-.408 1.294-.499 1.294-.499s-.075.958-.498 1.296c-.364.291-1.162.266-1.162.266zm-.664-8.479s-.076-.733-.365-1.064c-.356-.408-1.294-.499-1.294-.499s.075.958.498 1.296c.364.291 1.162.266 1.162.266zm0 2.095s-.076-.733-.365-1.064c-.356-.408-1.294-.499-1.294-.499s.075.958.498 1.296c.364.291 1.162.266 1.162.266zm0 2.095s-.076-.733-.365-1.064c-.356-.408-1.294-.499-1.294-.499s.075.958.498 1.296c.364.291 1.162.266 1.162.266zm0 2.094s-.076-.733-.365-1.064c-.356-.408-1.294-.499-1.294-.499s.075.958.498 1.296c.364.291 1.162.266 1.162.266zm0 2.095s-.076-.733-.365-1.064c-.356-.408-1.294-.499-1.294-.499s.075.958.498 1.296c.364.291 1.162.266 1.162.266z" style="stroke:var(--color1, #f3c80b)"/><path fill="none" stroke="#27a6eb" stroke-linecap="round" stroke-width=".314" d="M23.94 17.479c-.034.831-.673 1.595-.673 1.595s-.707-.864-.707-1.595m1.38 0c0-.532-.673-.93-.673-.93s-.707.476-.707.93m1.38 0v3.688m-1.38-3.688v3.688m-6.395.864s-1.825.335-2.421.864c-.82.729-.822 1.462-.822 2.061 0 0-.18 6.665 0 6.78s2.32-1.925 3.196-3.589c.587-1.114.911-1.805 1.009-3.058.095-1.204-.113-1.903-.471-3.058-.386-1.243-.902-1.823-1.48-2.991-.656-1.324-1.117-2.026-1.682-3.39-.608-1.466-.926-2.31-1.279-3.855-.211-.924-.288-1.452-.404-2.393-.317-2.577-.344-5.189-.101-6.68s.753-2.355.753-2.355m10.856 19.137s.019 2.66-.015 3.524.034 1.728-.404 2.127c-.437.399-.808.399-1.279.399h-8.264m3.701-3.828c.932-.21 2.055-.636 2.56-1.235s.639-1.244.63-1.975c-.008-.731-.255-1.519-.63-1.936-.538-.598-1.06-.845-1.413-1.595-.391-.831-.217-1.983-.101-3.224.118-1.262.269-2.025.572-3.257.265-1.078.516-1.599.942-2.626.491-1.183 1.178-2.36 1.615-2.858s1.005-1.047 1.581-.731c.411.225.505.798.505 1.13v12.663m-.322-1.162s-.077.733-.37 1.063c-.361.408-1.312.498-1.312.498s.076-.958.505-1.296c.369-.291 1.178-.266 1.178-.266zm0-2.094s-.077.733-.37 1.063c-.361.408-1.312.498-1.312.498s.076-.958.505-1.296c.369-.291 1.178-.266 1.178-.266zm0-2.093s-.077.733-.37 1.063c-.361.408-1.312.498-1.312.498s.076-.958.505-1.296c.369-.291 1.178-.266 1.178-.266zm0-2.094s-.077.733-.37 1.063c-.361.408-1.312.498-1.312.498s.076-.958.505-1.296c.369-.291 1.178-.266 1.178-.266zm0-2.094s-.077.733-.37 1.063c-.361.408-1.312.498-1.312.498s.076-.958.505-1.296c.369-.291 1.178-.266 1.178-.266zm.673 8.475s.078.733.37 1.063c.361.408 1.312.498 1.312.498s-.076-.958-.505-1.296c-.369-.291-1.178-.266-1.178-.266zm0-2.094s.078.733.37 1.063c.361.408 1.312.498 1.312.498s-.076-.958-.505-1.296c-.369-.291-1.178-.266-1.178-.266zm0-2.094s.078.733.37 1.063c.361.408 1.312.498 1.312.498s-.076-.958-.505-1.296c-.369-.291-1.178-.266-1.178-.266zm0-2.094s.078.733.37 1.063c.361.408 1.312.498 1.312.498s-.076-.958-.505-1.296c-.369-.291-1.178-.266-1.178-.266zm0-2.093s.078.733.37 1.063c.361.408 1.312.498 1.312.498s-.076-.958-.505-1.296c-.369-.291-1.178-.266-1.178-.266z" style="stroke:var(--color2, #27a6eb)"/></symbol><symbol id="header-right" viewBox="0 0 183 32"><path fill="#27a6eb" d="M167.684 13.531 181.12 0s-8.145 2.77-13.436 4.273c-17.83 5.063-28.488 6.589-48.873 6.587-12.939-.502-20.266-1.258-33.59-4.273-5.181-.903-8.406-1.574-13.604-2.368-5.95-.909-8.667-1.537-14.611-2.493C47.757.24 39.875-.232 32.15.658c-2.76.511-7.222 1.656-7.222 1.656v7.655s4.169-.985 6.886-1.246c6.382-.615 14.49-.632 22.841.534s11.67 2.296 19.314 3.507c16.131 3.982 24.927 5.11 40.308 5.751 5.767.24 10.02.26 15.787 0 10.095-.456 15.451-.828 21.665-1.656 5.053-.674 15.955-3.329 15.955-3.329zM1.92 8.724l8.733 11.394c5.466.775 8.582.751 14.276-.534v-8.421s-4.031 1.834-10.749 1.3C7.462 11.929 1.92 8.724 1.92 8.724z" style="fill:var(--color2, #27a6eb)"/><path fill="#f3c80b" d="M38.197 26.527c-3.891-2.966-2.183-1.823-6.382-4.273-1.847-1.078-4.199-2.136-6.886-2.671-5.694 1.285-8.809 1.309-14.276.534L1.92 26.526c15.532 2.821 35.605 1.424 36.277 0z" style="fill:var(--color1, #f3c80b)"/><path fill="#f3c80b" d="M167.684 13.531s-10.902 2.655-15.955 3.329c-6.214.828-11.571 1.2-21.665 1.656-5.766.26-10.02.24-15.787 0-15.38-.641-24.177-1.769-40.308-5.751-7.644-1.211-10.962-2.34-19.314-3.507s-16.459-1.149-22.841-.534c-2.717.262-6.886 1.246-6.886 1.246v9.613c5.568-1.285 8.508-1.731 13.268-1.78 7.054 0 10.749.356 18.474 1.246 6.438.742 10.621 1.697 16.459 2.67l14.947 2.492c5.837.973 9.608 1.529 15.788 2.314 11.325 1.207 17.05 1.515 26.2 1.424 19.654-1.28 29.798-3.48 46.689-9.436l-9.069-4.985z" style="fill:var(--color1, #f3c80b)"/><path fill="#c2a009" d="M38.197 26.527c.672-3.383 0-8.724 0-8.724-4.76.049-7.7.495-13.268 1.78 2.687.534 5.038 1.593 6.886 2.671 4.199 2.449 2.491 1.306 6.382 4.273z" style="fill:var(--color3, #c2a009)"/></symbol><symbol id="header-left" viewBox="0 0 183 32"><path fill="#27a6eb" d="M15.356 13.531 1.92 0s8.144 2.77 13.436 4.273c17.829 5.063 28.488 6.589 48.873 6.587 12.939-.502 20.266-1.258 33.59-4.273 5.181-.903 8.406-1.574 13.604-2.368 5.95-.909 8.667-1.537 14.611-2.493C135.283.24 143.165-.232 150.89.658c2.76.511 7.222 1.656 7.222 1.656v7.655s-4.169-.985-6.886-1.246c-6.382-.615-14.49-.632-22.841.534s-11.67 2.296-19.314 3.507c-16.131 3.982-24.927 5.11-40.308 5.751-5.767.24-10.02.26-15.787 0-10.095-.456-15.451-.828-21.665-1.656-5.053-.674-15.955-3.329-15.955-3.329zM181.12 8.724l-8.733 11.394c-5.466.775-8.582.751-14.275-.534v-8.421s4.031 1.834 10.748 1.3c6.718-.534 12.26-3.739 12.26-3.739z" style="fill:var(--color2, #27a6eb)"/><path fill="#f3c80b" d="M144.844 26.527c3.891-2.966 2.183-1.823 6.382-4.273 1.847-1.078 4.198-2.136 6.886-2.671 5.693 1.285 8.809 1.309 14.275.534l8.733 6.409c-15.532 2.821-35.605 1.424-36.276 0zM15.356 13.531s10.902 2.655 15.955 3.329c6.214.828 11.57 1.2 21.665 1.656 5.766.26 10.02.24 15.787 0 15.38-.641 24.177-1.769 40.308-5.751 7.644-1.211 10.963-2.34 19.314-3.507s16.459-1.149 22.841-.534c2.717.262 6.886 1.246 6.886 1.246v9.613c-5.568-1.285-8.509-1.731-13.268-1.78-7.054 0-10.749.356-18.474 1.246-6.438.742-10.621 1.697-16.459 2.67l-14.947 2.492c-5.837.973-9.608 1.529-15.788 2.314-11.325 1.207-17.05 1.515-26.2 1.424-19.654-1.28-29.798-3.48-46.689-9.436l9.069-4.985z" style="fill:var(--color1, #f3c80b)"/><path fill="#c2a009" d="M144.844 26.527c-.672-3.383 0-8.724 0-8.724 4.759.049 7.7.495 13.268 1.78-2.687.534-5.039 1.593-6.886 2.671-4.199 2.449-2.492 1.306-6.382 4.273z" style="fill:var(--color3, #c2a009)"/></symbol><symbol id="options" viewBox="0 0 32 32"><path d="M0 3a3.004 3.004 0 0 1 3-3h26a3.004 3.004 0 0 1 3 3v26a3.004 3.004 0 0 1-3 3H3a3.004 3.004 0 0 1-3-3V3zm3-1a.997.997 0 0 0-1 1v7h8V2H3zm7 10H2v8h8v-8zm2 8v-8h8v8h-8zm-2 2H2v7a.997.997 0 0 0 1 1h7v-8zm2 0h8v8h-8v-8zm10 0v8h7a.997.997 0 0 0 1-1v-7h-8zm0-2h8v-8h-8v8zm0-10h8V3a.997.997 0 0 0-1-1h-7v8zm-2 0h-8V2h8v8z"/></symbol><symbol id="arrow-down" viewBox="0 0 32 32"><path d="M3.292 9.292A.991.991 0 0 1 4 8.999a1.002 1.002 0 0 1 .708.293L16 20.586 27.292 9.292A.991.991 0 0 1 28 8.999a1.006 1.006 0 0 1 .925.618 1.01 1.01 0 0 1 0 .766c-.05.121-.124.232-.217.325l-12 12a.991.991 0 0 1-.708.293 1.002 1.002 0 0 1-.708-.293l-12-12A.991.991 0 0 1 2.999 10a1.002 1.002 0 0 1 .293-.708z"/></symbol><symbol id="menu" viewBox="0 0 32 32"><path d="M19.556 28.308c0 .979-.375 1.918-1.041 2.611S16.944 32 16.001 32s-1.847-.389-2.514-1.081c-.667-.692-1.041-1.632-1.041-2.611s.375-1.919 1.041-2.611c.667-.692 1.571-1.081 2.514-1.081s1.847.389 2.514 1.081a3.764 3.764 0 0 1 1.041 2.611zm0-12.308c0 .979-.375 1.918-1.041 2.611s-1.571 1.081-2.514 1.081-1.847-.389-2.514-1.081c-.667-.692-1.041-1.632-1.041-2.611s.375-1.918 1.041-2.611c.667-.692 1.571-1.081 2.514-1.081s1.847.389 2.514 1.081A3.764 3.764 0 0 1 19.556 16zm0-12.308c0 .979-.375 1.918-1.041 2.611s-1.571 1.081-2.514 1.081-1.847-.389-2.514-1.081c-.667-.692-1.041-1.632-1.041-2.611s.375-1.918 1.041-2.611C14.154.389 15.058 0 16.001 0s1.847.389 2.514 1.081a3.764 3.764 0 0 1 1.041 2.611z"/></symbol><symbol id="check-max" viewBox="0 0 32 32"><path d="M19.602 25.035a1 1 0 0 1-.715.299 1.026 1.026 0 0 1-.714-.299L.295 6.269a1.022 1.022 0 0 1 0-1.438 1.004 1.004 0 0 1 1.428 0L18.887 22.88l11.388-11.47a1.004 1.004 0 0 1 1.428 0 1.022 1.022 0 0 1 0 1.438L19.601 25.035z"/></symbol><symbol id="check-min" viewBox="0 0 32 32"><path d="M2.96 6.96a.991.991 0 0 1 .708-.293 1.002 1.002 0 0 1 .708.293l15.367 15.197L28.6 13.37a.991.991 0 0 1 .708-.293 1.006 1.006 0 0 1 .925.618 1.01 1.01 0 0 1 0 .766c-.05.121-.124.232-.217.325l-9.565 9.493a.991.991 0 0 1-.708.293 1.002 1.002 0 0 1-.708-.293L2.96 8.376a.991.991 0 0 1-.293-.708 1.002 1.002 0 0 1 .293-.708z"/></symbol><symbol id="search" viewBox="0 0 32 32"><path d="M20.882 20.884a2.005 2.005 0 0 1 2.181-.434c.243.1.463.248.649.434l7.7 7.7a2 2 0 0 1-2.828 2.83l-7.7-7.7a2.005 2.005 0 0 1-.434-2.181c.101-.243.248-.463.434-.649h-.002z"/><path d="M13 24a11.008 11.008 0 0 0 7.778-3.222A10.999 10.999 0 0 0 13 1.999a11 11 0 0 0 0 22zm13-11A13 13 0 1 1 .002 13 13 13 0 0 1 26 13z"/></symbol><symbol id="trash" viewBox="0 0 32 32"><path d="M12.889 10.667c.236 0 .462.11.629.307s.26.463.26.741v12.571c0 .278-.094.544-.26.741s-.393.307-.629.307-.462-.11-.629-.307a1.149 1.149 0 0 1-.26-.741V11.715c0-.278.094-.544.26-.741s.393-.307.629-.307zM20 11.714c0-.278-.094-.544-.26-.741s-.393-.307-.629-.307-.462.11-.629.307c-.167.196-.26.463-.26.741v12.571c0 .278.094.544.26.741s.393.307.629.307.462-.11.629-.307c.167-.197.26-.463.26-.741V11.714z"/><path d="M29 6a2 2 0 0 1-2 2h-1v18a4.003 4.003 0 0 1-4 4H10a4.001 4.001 0 0 1-4-4V8H5a2 2 0 0 1-2-2V4a2 2 0 0 1 2-2h7a2 2 0 0 1 2-2h4a2 2 0 0 1 2 2h7a2 2 0 0 1 2 2v2zM8.236 8 8 8.118V26a2 2 0 0 0 2 2h12a2 2 0 0 0 2-2V8.118L23.764 8H8.236zM5 6V4h22v2H5z"/></symbol><symbol id="pencil" viewBox="0 0 32 32"><path d="M24.299.265a.991.991 0 0 1 .708-.293 1.006 1.006 0 0 1 .708.293l6 6a.991.991 0 0 1 .293.708 1.002 1.002 0 0 1-.293.708l-20 20c-.096.095-.21.17-.336.22l-10 4a1.004 1.004 0 0 1-1.352-.727.994.994 0 0 1 .051-.573l4-10c.05-.126.125-.24.22-.336l20-20zm-1.878 4.708 4.586 4.586 2.586-2.586-4.586-4.586-2.586 2.586zm3.172 6-4.586-4.586-13 13v.586h1a.997.997 0 0 1 1 1v1h1a.997.997 0 0 1 1 1v1h.586l13-13zM6.071 21.323l-.212.212-3.056 7.642 7.642-3.056.212-.212a.996.996 0 0 1-.65-.936v-1h-1a.997.997 0 0 1-1-1v-1h-1a.995.995 0 0 1-.936-.65z"/></symbol><symbol id="arrow-down-big" viewBox="0 0 32 32"><path d="M16 29.333a1.667 1.667 0 0 1-1.667-1.667V4.333a1.667 1.667 0 0 1 3.334 0v23.333c0 .921-.746 1.667-1.667 1.667z"/><path d="M3.155 14.821a1.666 1.666 0 0 1 2.357 0L16 25.309l10.488-10.488a1.666 1.666 0 1 1 2.357 2.357L17.178 28.845a1.666 1.666 0 0 1-2.357 0L3.154 17.178a1.666 1.666 0 0 1 0-2.357z"/></symbol><symbol id="link" viewBox="0 0 32 32"><path d="m8.034 12.763-3.272 3.399a7.58 7.58 0 0 0-2.095 5.255c0 1.971.754 3.861 2.095 5.255s3.161 2.177 5.059 2.177a7.022 7.022 0 0 0 5.059-2.177l4.359-4.531c.809-.841 1.412-1.871 1.759-3.003s.427-2.336.233-3.507c-.193-1.171-.655-2.278-1.345-3.226s-1.589-1.71-2.622-2.223l-1.397 1.452a2.47 2.47 0 0 0-.367.493c.798.238 1.522.689 2.1 1.307s.992 1.382 1.2 2.217c.207.835.201 1.712-.017 2.543s-.643 1.59-1.23 2.199l-4.357 4.528c-.895.93-2.109 1.452-3.374 1.452s-2.479-.522-3.374-1.452c-.895-.93-1.398-2.19-1.398-3.505s.503-2.575 1.398-3.505l1.891-1.962a10.307 10.307 0 0 1-.305-3.188v.002z"/><path d="M12.571 8.374c-.809.841-1.412 1.871-1.759 3.004s-.427 2.336-.233 3.508c.193 1.172.655 2.278 1.345 3.226s1.589 1.711 2.622 2.223l1.848-1.923c-.809-.225-1.546-.668-2.137-1.283s-1.017-1.381-1.234-2.221c-.216-.84-.216-1.725 0-2.565s.642-1.606 1.234-2.221l4.356-4.529c.895-.93 2.109-1.452 3.374-1.452s2.479.522 3.374 1.452c.895.93 1.398 2.191 1.398 3.506s-.503 2.576-1.398 3.506l-1.891 1.962c.267 1.041.37 2.118.305 3.188l3.272-3.399c1.342-1.394 2.095-3.285 2.095-5.256s-.754-3.862-2.095-5.256c-1.342-1.394-3.161-2.177-5.059-2.177s-3.717.783-5.059 2.177L12.57 8.373z"/></symbol><symbol id="plus" viewBox="0 0 32 32"><path stroke-linecap="round" stroke-linejoin="round" stroke-width="2.667" d="M16 2.667V16m0 0v13.333M16 16h13.333M16 16H2.667"/></symbol><symbol id="graph" viewBox="0 0 32 32"><path d="M0 0h2v30h30v2H0V0zm20 7a.997.997 0 0 1 1-1h8a.997.997 0 0 1 1 1v8a.997.997 0 0 1-1 1 .997.997 0 0 1-1-1V9.8l-7.226 8.834a1.002 1.002 0 0 1-1.132.3.988.988 0 0 1-.347-.226l-5.174-5.174-7.312 10.054a1 1 0 0 1-1.616-1.177l8-11a1.005 1.005 0 0 1 .73-.41 1.01 1.01 0 0 1 .786.29l5.218 5.22 6.964-8.512h-5.89a.997.997 0 0 1-1-1z"/></symbol><symbol id="setting" viewBox="0 0 32 32"><path d="M17.689 3.267c-.492-1.67-2.856-1.67-3.348 0l-.188.638a3.737 3.737 0 0 1-2.16 2.401 3.752 3.752 0 0 1-3.225-.171l-.584-.32c-1.528-.83-3.2.84-2.368 2.37l.318.584a3.756 3.756 0 0 1 .171 3.225 3.748 3.748 0 0 1-2.401 2.16l-.638.188c-1.67.492-1.67 2.856 0 3.348l.638.188a3.748 3.748 0 0 1 2.23 5.385l-.32.582c-.83 1.528.84 3.2 2.37 2.368l.584-.318a3.74 3.74 0 0 1 3.225-.17 3.738 3.738 0 0 1 2.159 2.402l.188.636c.492 1.67 2.856 1.67 3.348 0l.188-.638a3.748 3.748 0 0 1 5.385-2.231l.582.32c1.528.83 3.2-.84 2.368-2.37l-.318-.582a3.757 3.757 0 0 1 .786-4.579c.416-.373.91-.65 1.446-.807l.636-.188c1.67-.492 1.67-2.856 0-3.348l-.638-.188a3.737 3.737 0 0 1-2.401-2.16 3.752 3.752 0 0 1 .171-3.225l.32-.584c.83-1.528-.84-3.2-2.37-2.368l-.582.318c-.491.268-1.036.423-1.594.452s-1.116-.066-1.633-.279a3.745 3.745 0 0 1-2.161-2.404l-.188-.638h.002zm-5.266-.566c1.054-3.58 6.13-3.58 7.184 0l.188.638a1.754 1.754 0 0 0 1.006 1.12 1.756 1.756 0 0 0 1.504-.079l.584-.32c3.28-1.784 6.868 1.802 5.08 5.082l-.318.584a1.756 1.756 0 0 0 .367 2.134c.194.174.424.303.674.376l.638.188c3.58 1.054 3.58 6.13 0 7.184l-.638.188a1.754 1.754 0 0 0-1.12 1.006 1.756 1.756 0 0 0 .079 1.504l.32.584c1.786 3.28-1.804 6.868-5.082 5.08l-.584-.318a1.746 1.746 0 0 0-2.51 1.041l-.188.638c-1.054 3.58-6.13 3.58-7.184 0l-.188-.638a1.754 1.754 0 0 0-1.006-1.12 1.756 1.756 0 0 0-1.504.079l-.584.32c-3.28 1.786-6.866-1.804-5.08-5.082l.318-.584a1.746 1.746 0 0 0-1.041-2.51l-.638-.188c-3.58-1.054-3.58-6.13 0-7.184l.638-.188a1.754 1.754 0 0 0 1.12-1.006 1.756 1.756 0 0 0-.079-1.504l-.32-.584c-1.784-3.28 1.804-6.866 5.082-5.08l.584.318a1.746 1.746 0 0 0 2.51-1.041l.188-.638z"/><path d="M16 11.508A4.489 4.489 0 0 0 11.508 16 4.489 4.489 0 0 0 16 20.492 4.489 4.489 0 0 0 20.492 16 4.489 4.489 0 0 0 16 11.508zM9.508 16a6.49 6.49 0 1 1 6.49 6.492A6.49 6.49 0 0 1 9.506 16z"/></symbol><symbol id="star" viewBox="0 0 32 32"><path d="M5.729 29.7c-.156.888.72 1.582 1.492 1.186l8.78-4.512 8.778 4.512c.772.396 1.648-.298 1.492-1.184l-1.66-9.46 7.046-6.712c.658-.628.316-1.776-.566-1.9l-9.796-1.392-4.368-8.654A1.023 1.023 0 0 0 16 .998a1.023 1.023 0 0 0-.927.586l-4.368 8.656-9.796 1.392c-.882.124-1.224 1.272-.566 1.9l7.046 6.712-1.66 9.46V29.7zm9.81-5.534-7.372 3.788 1.388-7.914a1.124 1.124 0 0 0-.326-1.01l-5.812-5.54 8.104-1.152a1.05 1.05 0 0 0 .786-.576l3.694-7.316 3.692 7.316a1.038 1.038 0 0 0 .786.576l8.104 1.15-5.812 5.54a1.127 1.127 0 0 0-.326 1.012l1.388 7.914-7.372-3.788a1.015 1.015 0 0 0-.922 0z"/></symbol><symbol id="exit" viewBox="0 0 28 32"><path d="M6.041 6.907a1.391 1.391 0 0 1 0 1.968 11.132 11.132 0 0 0 7.871 18.999 11.128 11.128 0 0 0 10.916-13.301 11.132 11.132 0 0 0-3.045-5.699 1.392 1.392 0 0 1 1.968-1.968 13.911 13.911 0 0 1-2.111 21.405 13.909 13.909 0 0 1-20.582-6.243A13.91 13.91 0 0 1 4.072 6.906a1.391 1.391 0 0 1 1.968 0z"/><path d="M13.92.044c.768 0 1.391.623 1.391 1.391v13.913a1.391 1.391 0 0 1-2.782 0V1.435c0-.768.623-1.391 1.391-1.391z"/></symbol><symbol id="arrow-right" viewBox="0 0 59 32"><path stroke-width="1.778" d="M0 16.889h56.889m0 0L44.855 1.778m12.034 15.111L44.52 30.222"/></symbol><symbol id="close" viewBox="0 0 32 32"><path d="M28.776 5.918 18.694 16l10.082 10.082a1.905 1.905 0 1 1-2.694 2.694L16 18.694 5.918 28.776a1.905 1.905 0 1 1-2.694-2.694L13.306 16 3.224 5.918a1.905 1.905 0 1 1 2.694-2.694L16 13.306 26.082 3.224a1.905 1.905 0 1 1 2.694 2.694zM18.694 16 16 13.306 13.306 16 16 18.694 18.694 16z"/><path d="M18.694 16 16 13.306 13.306 16 16 18.694 18.694 16z"/></symbol></defs></svg>