<svg xmlns="http://www.w3.org/2000/svg" aria-hidden="true" style="position:absolute;width:0;height:0;overflow:hidden"><defs><symbol id="header-right" viewBox="0 0 182 32"><path fill="#27a6eb" d="M166.498 13.37 179.775 0s-8.048 2.737-13.277 4.222c-17.618 5.003-28.15 6.511-48.294 6.509-12.785-.496-20.025-1.243-33.191-4.222-5.12-.893-8.307-1.556-13.442-2.34-5.88-.898-8.565-1.519-14.439-2.463C47.993.237 40.205-.229 32.571.65c-2.727.505-7.136 1.637-7.136 1.637v7.565s4.12-.973 6.804-1.231c6.306-.607 14.318-.625 22.57.528s11.532 2.269 19.085 3.465c15.94 3.935 24.632 5.05 39.83 5.683 5.699.237 9.902.257 15.6 0 9.975-.45 15.268-.818 21.409-1.637 4.993-.666 15.766-3.289 15.766-3.289zM2.699 8.62l8.63 11.259c5.401.766 8.48.742 14.106-.528v-8.322s-3.983 1.813-10.621 1.285S2.699 8.62 2.699 8.62z" style="fill:var(--color1, #27a6eb)"/><path fill="#f3c80b" d="M38.546 26.213c-3.844-2.931-2.157-1.802-6.306-4.222-1.826-1.065-4.149-2.111-6.804-2.639-5.626 1.27-8.705 1.293-14.106.528L2.7 26.213c15.348 2.787 35.183 1.407 35.846 0zM166.498 13.37s-10.773 2.624-15.766 3.289c-6.141.819-11.434 1.186-21.409 1.637-5.698.257-9.901.237-15.6 0-15.198-.633-23.889-1.748-39.83-5.683-7.553-1.196-10.832-2.312-19.085-3.465s-16.264-1.135-22.57-.528c-2.685.259-6.804 1.231-6.804 1.231v9.5c5.502-1.27 8.408-1.711 13.111-1.759 6.97 0 10.621.352 18.255 1.231 6.361.733 10.496 1.677 16.264 2.639l14.77 2.463c5.768.962 9.494 1.51 15.599 2.287 11.191 1.193 16.848 1.497 25.889 1.407 19.421-1.265 29.445-3.439 46.136-9.324l-8.961-4.926z" style="fill:var(--color2, #f3c80b)"/><path fill="#c2a009" d="M38.546 26.213c.664-3.343 0-8.62 0-8.62-4.703.048-7.609.489-13.111 1.759 2.655.528 4.979 1.574 6.804 2.639 4.149 2.42 2.462 1.291 6.306 4.222z" style="fill:var(--color3, #c2a009)"/></symbol><symbol id="emblem" viewBox="0 0 26 32"><path fill="none" stroke="#f3c80b" stroke-linecap="round" stroke-width=".34" d="M1.773 12.41c.033-.83.663-1.593.663-1.593s.696.863.696 1.593m-1.359 0c0 .531.663.929.663.929s.696-.476.696-.929m-1.359 0V8.726m1.358 3.684V8.726m6.548 13.343s1.401.051 2.165.74c.807.728 1.146 1.916 1.146 2.248m.128 6.629s-2.597-1.914-3.459-3.576c-.578-1.113-.897-1.803-.994-3.054-.093-1.203.111-1.9.464-3.054.38-1.242.888-1.821 1.458-2.987.646-1.323 1.1-2.023 1.657-3.386.599-1.464.912-2.307 1.259-3.85.208-.923.284-1.451.398-2.39.313-2.573.344-5.183.099-6.671S13.246.366 13.246.366M2.45 13.684v6.328s-.033 2.124 0 2.987-.033 1.726.398 2.124c.431.398.795.398 1.259.398h8.884M8.66 21.699c-.918-.209-1.997-.656-2.58-1.356s-.604-1.63-.604-2.096c0-.466.164-1.19.604-1.686.53-.597 1.044-.843 1.392-1.593.385-.83.213-1.98.099-3.22-.116-1.261-.265-2.023-.563-3.253-.261-1.076-.509-1.597-.928-2.622-.483-1.181-1.16-2.357-1.59-2.854s-.99-1.045-1.557-.73c-.405.225-.497.797-.497 1.128v6.939m.265 4.609s.076-.732.364-1.062c.356-.408 1.292-.498 1.292-.498s-.074.956-.497 1.294c-.363.29-1.16.265-1.16.265zm0 2.091s.076-.732.364-1.062c.356-.408 1.292-.498 1.292-.498s-.074.956-.497 1.294c-.363.29-1.16.265-1.16.265zm0 2.092s.076-.732.364-1.062c.356-.408 1.292-.498 1.292-.498s-.074.956-.497 1.294c-.363.29-1.16.265-1.16.265zm0 2.091s.076-.732.364-1.062c.356-.408 1.292-.498 1.292-.498s-.074.956-.497 1.294c-.363.29-1.16.265-1.16.265zm0 2.091s.076-.732.364-1.062c.356-.408 1.292-.498 1.292-.498s-.074.956-.497 1.294c-.363.29-1.16.265-1.16.265zm-.663-8.464s-.076-.732-.364-1.062c-.356-.408-1.292-.498-1.292-.498s.075.956.497 1.294c.363.29 1.16.265 1.16.265zm0 2.091s-.076-.732-.364-1.062c-.356-.408-1.292-.498-1.292-.498s.075.956.497 1.294c.363.29 1.16.265 1.16.265zm0 2.091s-.076-.732-.364-1.062c-.356-.408-1.292-.498-1.292-.498s.075.956.497 1.294c.363.29 1.16.265 1.16.265zm0 2.091s-.076-.732-.364-1.062c-.356-.408-1.292-.498-1.292-.498s.075.956.497 1.294c.363.29 1.16.265 1.16.265zm0 2.092s-.076-.732-.364-1.062c-.356-.408-1.292-.498-1.292-.498s.075.956.497 1.294c.363.29 1.16.265 1.16.265z" style="stroke:var(--color2, #f3c80b)"/><path fill="none" stroke="#27a6eb" stroke-linecap="round" stroke-width=".34" d="M24.489 17.449c-.034.829-.672 1.592-.672 1.592s-.705-.862-.705-1.592m1.377 0c0-.531-.672-.929-.672-.929s-.705.475-.705.929m1.377 0v3.682m-1.377-3.682v3.682m-6.385.863s-1.822.335-2.416.863c-.818.727-.821 1.46-.821 2.057 0 0-.18 6.654 0 6.768s2.316-1.922 3.191-3.583c.586-1.112.909-1.802 1.008-3.052.094-1.202-.113-1.899-.47-3.052-.385-1.241-.9-1.82-1.478-2.986-.655-1.322-1.115-2.022-1.68-3.384-.607-1.464-.924-2.306-1.276-3.849-.211-.923-.287-1.45-.403-2.389-.317-2.572-.343-5.181-.101-6.669s.752-2.351.752-2.351M23.87 19.471s.019 2.656-.015 3.518.034 1.725-.403 2.123-.806.398-1.276.398h-8.25m3.693-3.821c.93-.209 2.052-.635 2.556-1.232s.637-1.242.629-1.972c-.008-.73-.255-1.516-.629-1.932-.537-.597-1.058-.843-1.411-1.592-.39-.829-.216-1.98-.101-3.218.117-1.26.268-2.022.571-3.251.265-1.076.516-1.597.941-2.621.49-1.181 1.176-2.356 1.612-2.853s1.003-1.045 1.579-.73c.411.225.504.796.504 1.128v12.641m-.322-1.162s-.077.731-.369 1.061c-.361.408-1.31.498-1.31.498s.076-.956.504-1.294c.368-.29 1.176-.265 1.176-.265zm0-2.09s-.077.731-.369 1.061c-.361.408-1.31.498-1.31.498s.076-.956.504-1.294c.368-.29 1.176-.265 1.176-.265zm0-2.091s-.077.731-.369 1.061c-.361.408-1.31.498-1.31.498s.076-.956.504-1.294c.368-.29 1.176-.265 1.176-.265zm0-2.09s-.077.731-.369 1.061c-.361.408-1.31.498-1.31.498s.076-.956.504-1.294c.368-.29 1.176-.265 1.176-.265zm0-2.09s-.077.731-.369 1.061c-.361.408-1.31.498-1.31.498s.076-.956.504-1.294c.368-.29 1.176-.265 1.176-.265zm.672 8.461s.077.731.369 1.061c.361.408 1.31.498 1.31.498s-.076-.956-.504-1.294c-.368-.29-1.176-.265-1.176-.265zm0-2.091s.077.731.369 1.061c.361.408 1.31.498 1.31.498s-.076-.956-.504-1.294c-.368-.29-1.176-.265-1.176-.265zm0-2.09s.077.731.369 1.061c.361.408 1.31.498 1.31.498s-.076-.956-.504-1.294c-.368-.29-1.176-.265-1.176-.265zm0-2.09s.077.731.369 1.061c.361.408 1.31.498 1.31.498s-.076-.956-.504-1.294c-.368-.29-1.176-.265-1.176-.265zm0-2.091s.077.731.369 1.061c.361.408 1.31.498 1.31.498s-.076-.956-.504-1.294c-.368-.29-1.176-.265-1.176-.265z" style="stroke:var(--color1, #27a6eb)"/></symbol><symbol id="header-left" viewBox="0 0 182 32"><path fill="#27a6eb" d="M15.763 13.37 2.487 0s8.048 2.737 13.276 4.222c17.618 5.003 28.15 6.511 48.293 6.509 12.785-.496 20.025-1.243 33.191-4.222 5.121-.893 8.307-1.556 13.443-2.34 5.88-.898 8.565-1.519 14.438-2.463C134.267.237 142.055-.229 149.689.65c2.728.505 7.136 1.637 7.136 1.637v7.565s-4.12-.973-6.804-1.231c-6.306-.607-14.318-.625-22.57.528s-11.532 2.269-19.085 3.465c-15.939 3.935-24.632 5.05-39.829 5.683-5.699.237-9.902.257-15.6 0-9.975-.45-15.268-.818-21.408-1.637-4.993-.666-15.766-3.289-15.766-3.289zM179.562 8.62l-8.63 11.259c-5.402.766-8.48.742-14.106-.528v-8.322s3.983 1.813 10.621 1.285c6.639-.528 12.115-3.694 12.115-3.694z" style="fill:var(--color1, #27a6eb)"/><path fill="#f3c80b" d="M143.715 26.213c3.844-2.931 2.157-1.802 6.306-4.222 1.825-1.065 4.149-2.111 6.804-2.639 5.626 1.27 8.705 1.293 14.106.528l8.63 6.333c-15.347 2.787-35.183 1.407-35.846 0zM15.763 13.37s10.773 2.624 15.766 3.289c6.14.819 11.433 1.186 21.408 1.637 5.698.257 9.901.237 15.6 0 15.198-.633 23.89-1.748 39.829-5.683 7.553-1.196 10.833-2.312 19.085-3.465s16.264-1.135 22.57-.528c2.685.259 6.804 1.231 6.804 1.231v9.5c-5.502-1.27-8.408-1.711-13.11-1.759-6.97 0-10.621.352-18.255 1.231-6.361.733-10.495 1.677-16.264 2.639l-14.77 2.463c-5.768.962-9.494 1.51-15.6 2.287-11.19 1.193-16.848 1.497-25.889 1.407-19.421-1.265-29.445-3.439-46.136-9.324l8.962-4.926z" style="fill:var(--color2, #f3c80b)"/><path fill="#c2a009" d="M143.715 26.213c-.664-3.343 0-8.62 0-8.62 4.703.048 7.608.489 13.11 1.759-2.655.528-4.979 1.574-6.804 2.639-4.149 2.42-2.462 1.291-6.306 4.222z" style="fill:var(--color3, #c2a009)"/></symbol><symbol id="instagram" viewBox="0 0 32 32"><path d="M8.727 2.909a5.818 5.818 0 0 0-5.818 5.818v14.545a5.818 5.818 0 0 0 5.818 5.818h14.545a5.818 5.818 0 0 0 5.818-5.818V8.727a5.818 5.818 0 0 0-5.818-5.818H8.727zM0 8.727A8.727 8.727 0 0 1 8.727 0h14.545a8.727 8.727 0 0 1 8.727 8.727v14.545a8.727 8.727 0 0 1-8.727 8.727H8.727A8.727 8.727 0 0 1 0 23.272V8.727z"/><path d="M16.703 11.621a4.36 4.36 0 0 0-4.538 2.354 4.358 4.358 0 0 0 .813 5.047 4.365 4.365 0 0 0 6.958-1.075 4.36 4.36 0 0 0-.788-5.095 4.367 4.367 0 0 0-2.446-1.231zm-3.99-2.139a7.272 7.272 0 1 1 6.7 12.91 7.272 7.272 0 0 1-6.7-12.911zM22.545 8c0-.803.651-1.455 1.455-1.455h.015a1.455 1.455 0 0 1 0 2.91H24A1.455 1.455 0 0 1 22.545 8z"/></symbol><symbol id="facebook" viewBox="0 0 17 32"><path d="M6.11 3.605C7.555 2.039 9.515 1.16 11.559 1.16h3.853c.709 0 1.284.623 1.284 1.391v5.565c0 .768-.575 1.391-1.284 1.391h-3.853v2.783h3.853c.396 0 .769.197 1.012.535s.33.778.234 1.194l-1.284 5.565c-.143.619-.657 1.054-1.246 1.054h-2.569v9.739c0 .768-.575 1.391-1.284 1.391H5.138c-.709 0-1.284-.623-1.284-1.391v-9.739H1.285c-.709 0-1.284-.623-1.284-1.391v-5.565c0-.768.575-1.391 1.284-1.391h2.569V9.508c0-2.214.812-4.337 2.257-5.903zm5.449.337c-1.362 0-2.669.586-3.633 1.63S6.421 8.031 6.421 9.507v4.174c0 .768-.575 1.391-1.284 1.391H2.568v2.783h2.569c.709 0 1.284.623 1.284 1.391v9.739H8.99v-9.739c0-.768.575-1.391 1.284-1.391h2.85l.642-2.783h-3.492c-.709 0-1.284-.623-1.284-1.391V9.507c0-.738.271-1.446.752-1.968s1.135-.815 1.816-.815h2.569V3.941h-2.569z"/></symbol><symbol id="phone" viewBox="0 0 32 32"><path d="M18.741 1.186A1.333 1.333 0 0 1 20.213.008a13.331 13.331 0 0 1 11.778 11.763 1.333 1.333 0 1 1-2.65.298 10.665 10.665 0 0 0-9.422-9.41 1.333 1.333 0 0 1-1.178-1.472zm.017 5.225a1.333 1.333 0 0 1 1.564-1.053 8 8 0 0 1 6.32 6.32 1.334 1.334 0 0 1-2.617.511 5.336 5.336 0 0 0-4.213-4.213 1.333 1.333 0 0 1-1.053-1.564zM9.318 1.333H5.329a4.014 4.014 0 0 0-2.95 1.303 3.988 3.988 0 0 0-1.03 3.057 27.745 27.745 0 0 0 4.302 12.165 27.317 27.317 0 0 0 8.404 8.4 27.72 27.72 0 0 0 12.078 4.294 3.99 3.99 0 0 0 4.05-2.379c.223-.51.337-1.062.335-1.619V22.56c.024-.948-.313-1.903-.947-2.652s-1.522-1.238-2.493-1.375a15.826 15.826 0 0 1-3.467-.862 4.002 4.002 0 0 0-2.239-.167l-.277.069a4.005 4.005 0 0 0-1.701.998l-.96.959-.16-.099a20.002 20.002 0 0 1-5.854-5.854l-.101-.16.955-.954a4.003 4.003 0 0 0 .905-4.226 15.792 15.792 0 0 1-.86-3.452 3.997 3.997 0 0 0-4.001-3.452zM5.333 4h3.998c.337-.003.65.112.896.322s.406.504.451.824a18.43 18.43 0 0 0 1.004 4.026 1.336 1.336 0 0 1-.299 1.409l-1.688 1.688a1.333 1.333 0 0 0-.216 1.602 22.666 22.666 0 0 0 8.5 8.5 1.334 1.334 0 0 0 1.602-.216l1.693-1.693a1.328 1.328 0 0 1 1.401-.295c1.307.488 2.662.825 4.042 1.007a1.331 1.331 0 0 1 1.134 1.352v4.033a1.326 1.326 0 0 1-.432.993 1.343 1.343 0 0 1-1.022.346 25.036 25.036 0 0 1-10.901-3.884 24.681 24.681 0 0 1-7.6-7.596A25.07 25.07 0 0 1 4.003 5.432a1.317 1.317 0 0 1 .345-.998 1.338 1.338 0 0 1 .984-.435z"/></symbol><symbol id="telegram" viewBox="0 0 31 32"><path d="M28.152 5.262a1.313 1.313 0 0 1-.064.281l-.009.027c-.062.166-.16.322-.294.456l-3.966 3.966.975-2.785-2.785.975 3.966-3.966c.134-.134.289-.232.456-.294l.027-.009a1.231 1.231 0 0 1 .514-.068 1.281 1.281 0 0 1 1.186 1.187v.003l.002.035c.002.053.001.106-.003.158zm-.367-1.047a1.274 1.274 0 0 0-1.355-.294L.857 12.872A1.28 1.28 0 0 0 .76 15.25l11.07 4.92 4.92 11.07a1.28 1.28 0 0 0 2.378-.097L28.079 5.57c.037-.1.062-.203.073-.308zm-5.776 3.966-9.492 9.492-7.766-3.452 17.259-6.04zm1.81 1.81-6.04 17.259-3.452-7.766 9.492-9.492z"/><path d="M28.088 5.543c.032-.092.053-.186.064-.281l.003-.035a1.19 1.19 0 0 0 .003-.158l-.002-.035v-.003a1.279 1.279 0 0 0-1.417-1.183c-.095.01-.19.032-.283.064l-.027.009c-.166.062-.322.16-.456.294l-3.966 3.966 2.785-.975-.975 2.785 3.966-3.966c.134-.134.232-.289.294-.456l.009-.027z"/></symbol><symbol id="copyright" viewBox="0 0 30 32"><path d="M15.238.762A15.241 15.241 0 0 0 1.16 10.169a15.24 15.24 0 0 0 11.105 20.776A15.24 15.24 0 0 0 30.476 16 15.252 15.252 0 0 0 15.238.762zm0 29.257a14.017 14.017 0 0 1-13.75-16.754A14.016 14.016 0 0 1 12.503 2.25 14.02 14.02 0 0 1 29.257 16a14.03 14.03 0 0 1-14.019 14.019zm5.364-9.995a6.709 6.709 0 0 1-7.484 2.336A6.702 6.702 0 0 1 8.535 16a6.704 6.704 0 0 1 12.067-4.024.615.615 0 0 1 .037.677.612.612 0 0 1-1.014.055 5.48 5.48 0 0 0-8.839.084 5.489 5.489 0 0 0 2.716 8.413 5.487 5.487 0 0 0 6.123-1.913.608.608 0 0 1 .854-.121.608.608 0 0 1 .121.854z"/></symbol><symbol id="options" viewBox="0 0 32 32"><path d="M0 3a3.004 3.004 0 0 1 3-3h26a3.004 3.004 0 0 1 3 3v26a3.004 3.004 0 0 1-3 3H3a3.004 3.004 0 0 1-3-3V3zm3-1a.997.997 0 0 0-1 1v7h8V2H3zm7 10H2v8h8v-8zm2 8v-8h8v8h-8zm-2 2H2v7a.997.997 0 0 0 1 1h7v-8zm2 0h8v8h-8v-8zm10 0v8h7a.997.997 0 0 0 1-1v-7h-8zm0-2h8v-8h-8v8zm0-10h8V3a.997.997 0 0 0-1-1h-7v8zm-2 0h-8V2h8v8z"/></symbol><symbol id="arrow-down" viewBox="0 0 32 32"><path d="M3.292 9.292A.991.991 0 0 1 4 8.999a1.002 1.002 0 0 1 .708.293L16 20.586 27.292 9.292A.991.991 0 0 1 28 8.999a1.006 1.006 0 0 1 .925.618 1.01 1.01 0 0 1 0 .766c-.05.121-.124.232-.217.325l-12 12a.991.991 0 0 1-.708.293 1.002 1.002 0 0 1-.708-.293l-12-12A.991.991 0 0 1 2.999 10a1.002 1.002 0 0 1 .293-.708z"/></symbol><symbol id="menu" viewBox="0 0 32 32"><path d="M19.556 28.308c0 .979-.375 1.918-1.041 2.611S16.944 32 16.001 32s-1.847-.389-2.514-1.081c-.667-.692-1.041-1.632-1.041-2.611s.375-1.919 1.041-2.611c.667-.692 1.571-1.081 2.514-1.081s1.847.389 2.514 1.081a3.764 3.764 0 0 1 1.041 2.611zm0-12.308c0 .979-.375 1.918-1.041 2.611s-1.571 1.081-2.514 1.081-1.847-.389-2.514-1.081c-.667-.692-1.041-1.632-1.041-2.611s.375-1.918 1.041-2.611c.667-.692 1.571-1.081 2.514-1.081s1.847.389 2.514 1.081A3.764 3.764 0 0 1 19.556 16zm0-12.308c0 .979-.375 1.918-1.041 2.611s-1.571 1.081-2.514 1.081-1.847-.389-2.514-1.081c-.667-.692-1.041-1.632-1.041-2.611s.375-1.918 1.041-2.611C14.154.389 15.058 0 16.001 0s1.847.389 2.514 1.081a3.764 3.764 0 0 1 1.041 2.611z"/></symbol><symbol id="check-max" viewBox="0 0 32 32"><path d="M19.602 25.035a1 1 0 0 1-.715.299 1.026 1.026 0 0 1-.714-.299L.295 6.269a1.022 1.022 0 0 1 0-1.438 1.004 1.004 0 0 1 1.428 0L18.887 22.88l11.388-11.47a1.004 1.004 0 0 1 1.428 0 1.022 1.022 0 0 1 0 1.438L19.601 25.035z"/></symbol><symbol id="check-min" viewBox="0 0 32 32"><path d="M2.96 6.96a.991.991 0 0 1 .708-.293 1.002 1.002 0 0 1 .708.293l15.367 15.197L28.6 13.37a.991.991 0 0 1 .708-.293 1.006 1.006 0 0 1 .925.618 1.01 1.01 0 0 1 0 .766c-.05.121-.124.232-.217.325l-9.565 9.493a.991.991 0 0 1-.708.293 1.002 1.002 0 0 1-.708-.293L2.96 8.376a.991.991 0 0 1-.293-.708 1.002 1.002 0 0 1 .293-.708z"/></symbol><symbol id="search" viewBox="0 0 32 32"><path d="M20.882 20.884a2.005 2.005 0 0 1 2.181-.434c.243.1.463.248.649.434l7.7 7.7a2 2 0 0 1-2.828 2.83l-7.7-7.7a2.005 2.005 0 0 1-.434-2.181c.101-.243.248-.463.434-.649h-.002z"/><path d="M13 24a11.008 11.008 0 0 0 7.778-3.222A10.999 10.999 0 0 0 13 1.999a11 11 0 0 0 0 22zm13-11A13 13 0 1 1 .002 13 13 13 0 0 1 26 13z"/></symbol><symbol id="trash" viewBox="0 0 32 32"><path d="M12.889 10.667c.236 0 .462.11.629.307s.26.463.26.741v12.571c0 .278-.094.544-.26.741s-.393.307-.629.307-.462-.11-.629-.307a1.149 1.149 0 0 1-.26-.741V11.715c0-.278.094-.544.26-.741s.393-.307.629-.307zM20 11.714c0-.278-.094-.544-.26-.741s-.393-.307-.629-.307-.462.11-.629.307c-.167.196-.26.463-.26.741v12.571c0 .278.094.544.26.741s.393.307.629.307.462-.11.629-.307c.167-.197.26-.463.26-.741V11.714z"/><path d="M29 6a2 2 0 0 1-2 2h-1v18a4.003 4.003 0 0 1-4 4H10a4.001 4.001 0 0 1-4-4V8H5a2 2 0 0 1-2-2V4a2 2 0 0 1 2-2h7a2 2 0 0 1 2-2h4a2 2 0 0 1 2 2h7a2 2 0 0 1 2 2v2zM8.236 8 8 8.118V26a2 2 0 0 0 2 2h12a2 2 0 0 0 2-2V8.118L23.764 8H8.236zM5 6V4h22v2H5z"/></symbol><symbol id="pencil" viewBox="0 0 32 32"><path d="M24.299.265a.991.991 0 0 1 .708-.293 1.006 1.006 0 0 1 .708.293l6 6a.991.991 0 0 1 .293.708 1.002 1.002 0 0 1-.293.708l-20 20c-.096.095-.21.17-.336.22l-10 4a1.004 1.004 0 0 1-1.352-.727.994.994 0 0 1 .051-.573l4-10c.05-.126.125-.24.22-.336l20-20zm-1.878 4.708 4.586 4.586 2.586-2.586-4.586-4.586-2.586 2.586zm3.172 6-4.586-4.586-13 13v.586h1a.997.997 0 0 1 1 1v1h1a.997.997 0 0 1 1 1v1h.586l13-13zM6.071 21.323l-.212.212-3.056 7.642 7.642-3.056.212-.212a.996.996 0 0 1-.65-.936v-1h-1a.997.997 0 0 1-1-1v-1h-1a.995.995 0 0 1-.936-.65z"/></symbol><symbol id="arrow-down-big" viewBox="0 0 32 32"><path d="M16 29.333a1.667 1.667 0 0 1-1.667-1.667V4.333a1.667 1.667 0 0 1 3.334 0v23.333c0 .921-.746 1.667-1.667 1.667z"/><path d="M3.155 14.821a1.666 1.666 0 0 1 2.357 0L16 25.309l10.488-10.488a1.666 1.666 0 1 1 2.357 2.357L17.178 28.845a1.666 1.666 0 0 1-2.357 0L3.154 17.178a1.666 1.666 0 0 1 0-2.357z"/></symbol><symbol id="link" viewBox="0 0 32 32"><path d="m8.034 12.763-3.272 3.399a7.58 7.58 0 0 0-2.095 5.255c0 1.971.754 3.861 2.095 5.255s3.161 2.177 5.059 2.177a7.022 7.022 0 0 0 5.059-2.177l4.359-4.531c.809-.841 1.412-1.871 1.759-3.003s.427-2.336.233-3.507c-.193-1.171-.655-2.278-1.345-3.226s-1.589-1.71-2.622-2.223l-1.397 1.452a2.47 2.47 0 0 0-.367.493c.798.238 1.522.689 2.1 1.307s.992 1.382 1.2 2.217c.207.835.201 1.712-.017 2.543s-.643 1.59-1.23 2.199l-4.357 4.528c-.895.93-2.109 1.452-3.374 1.452s-2.479-.522-3.374-1.452c-.895-.93-1.398-2.19-1.398-3.505s.503-2.575 1.398-3.505l1.891-1.962a10.307 10.307 0 0 1-.305-3.188v.002z"/><path d="M12.571 8.374c-.809.841-1.412 1.871-1.759 3.004s-.427 2.336-.233 3.508c.193 1.172.655 2.278 1.345 3.226s1.589 1.711 2.622 2.223l1.848-1.923c-.809-.225-1.546-.668-2.137-1.283s-1.017-1.381-1.234-2.221c-.216-.84-.216-1.725 0-2.565s.642-1.606 1.234-2.221l4.356-4.529c.895-.93 2.109-1.452 3.374-1.452s2.479.522 3.374 1.452c.895.93 1.398 2.191 1.398 3.506s-.503 2.576-1.398 3.506l-1.891 1.962c.267 1.041.37 2.118.305 3.188l3.272-3.399c1.342-1.394 2.095-3.285 2.095-5.256s-.754-3.862-2.095-5.256c-1.342-1.394-3.161-2.177-5.059-2.177s-3.717.783-5.059 2.177L12.57 8.373z"/></symbol><symbol id="plus" viewBox="0 0 32 32"><path stroke-linecap="round" stroke-linejoin="round" stroke-width="2.667" d="M16 2.667V16m0 0v13.333M16 16h13.333M16 16H2.667"/></symbol><symbol id="graph" viewBox="0 0 32 32"><path d="M0 0h2v30h30v2H0V0zm20 7a.997.997 0 0 1 1-1h8a.997.997 0 0 1 1 1v8a.997.997 0 0 1-1 1 .997.997 0 0 1-1-1V9.8l-7.226 8.834a1.002 1.002 0 0 1-1.132.3.988.988 0 0 1-.347-.226l-5.174-5.174-7.312 10.054a1 1 0 0 1-1.616-1.177l8-11a1.005 1.005 0 0 1 .73-.41 1.01 1.01 0 0 1 .786.29l5.218 5.22 6.964-8.512h-5.89a.997.997 0 0 1-1-1z"/></symbol><symbol id="setting" viewBox="0 0 32 32"><path d="M17.689 3.267c-.492-1.67-2.856-1.67-3.348 0l-.188.638a3.737 3.737 0 0 1-2.16 2.401 3.752 3.752 0 0 1-3.225-.171l-.584-.32c-1.528-.83-3.2.84-2.368 2.37l.318.584a3.756 3.756 0 0 1 .171 3.225 3.748 3.748 0 0 1-2.401 2.16l-.638.188c-1.67.492-1.67 2.856 0 3.348l.638.188a3.748 3.748 0 0 1 2.23 5.385l-.32.582c-.83 1.528.84 3.2 2.37 2.368l.584-.318a3.74 3.74 0 0 1 3.225-.17 3.738 3.738 0 0 1 2.159 2.402l.188.636c.492 1.67 2.856 1.67 3.348 0l.188-.638a3.748 3.748 0 0 1 5.385-2.231l.582.32c1.528.83 3.2-.84 2.368-2.37l-.318-.582a3.757 3.757 0 0 1 .786-4.579c.416-.373.91-.65 1.446-.807l.636-.188c1.67-.492 1.67-2.856 0-3.348l-.638-.188a3.737 3.737 0 0 1-2.401-2.16 3.752 3.752 0 0 1 .171-3.225l.32-.584c.83-1.528-.84-3.2-2.37-2.368l-.582.318c-.491.268-1.036.423-1.594.452s-1.116-.066-1.633-.279a3.745 3.745 0 0 1-2.161-2.404l-.188-.638h.002zm-5.266-.566c1.054-3.58 6.13-3.58 7.184 0l.188.638a1.754 1.754 0 0 0 1.006 1.12 1.756 1.756 0 0 0 1.504-.079l.584-.32c3.28-1.784 6.868 1.802 5.08 5.082l-.318.584a1.756 1.756 0 0 0 .367 2.134c.194.174.424.303.674.376l.638.188c3.58 1.054 3.58 6.13 0 7.184l-.638.188a1.754 1.754 0 0 0-1.12 1.006 1.756 1.756 0 0 0 .079 1.504l.32.584c1.786 3.28-1.804 6.868-5.082 5.08l-.584-.318a1.746 1.746 0 0 0-2.51 1.041l-.188.638c-1.054 3.58-6.13 3.58-7.184 0l-.188-.638a1.754 1.754 0 0 0-1.006-1.12 1.756 1.756 0 0 0-1.504.079l-.584.32c-3.28 1.786-6.866-1.804-5.08-5.082l.318-.584a1.746 1.746 0 0 0-1.041-2.51l-.638-.188c-3.58-1.054-3.58-6.13 0-7.184l.638-.188a1.754 1.754 0 0 0 1.12-1.006 1.756 1.756 0 0 0-.079-1.504l-.32-.584c-1.784-3.28 1.804-6.866 5.082-5.08l.584.318a1.746 1.746 0 0 0 2.51-1.041l.188-.638z"/><path d="M16 11.508A4.489 4.489 0 0 0 11.508 16 4.489 4.489 0 0 0 16 20.492 4.489 4.489 0 0 0 20.492 16 4.489 4.489 0 0 0 16 11.508zM9.508 16a6.49 6.49 0 1 1 6.49 6.492A6.49 6.49 0 0 1 9.506 16z"/></symbol><symbol id="star" viewBox="0 0 32 32"><path d="M5.729 29.7c-.156.888.72 1.582 1.492 1.186l8.78-4.512 8.778 4.512c.772.396 1.648-.298 1.492-1.184l-1.66-9.46 7.046-6.712c.658-.628.316-1.776-.566-1.9l-9.796-1.392-4.368-8.654A1.023 1.023 0 0 0 16 .998a1.023 1.023 0 0 0-.927.586l-4.368 8.656-9.796 1.392c-.882.124-1.224 1.272-.566 1.9l7.046 6.712-1.66 9.46V29.7zm9.81-5.534-7.372 3.788 1.388-7.914a1.124 1.124 0 0 0-.326-1.01l-5.812-5.54 8.104-1.152a1.05 1.05 0 0 0 .786-.576l3.694-7.316 3.692 7.316a1.038 1.038 0 0 0 .786.576l8.104 1.15-5.812 5.54a1.127 1.127 0 0 0-.326 1.012l1.388 7.914-7.372-3.788a1.015 1.015 0 0 0-.922 0z"/></symbol><symbol id="exit" viewBox="0 0 28 32"><path d="M6.041 6.907a1.391 1.391 0 0 1 0 1.968 11.132 11.132 0 0 0 7.871 18.999 11.128 11.128 0 0 0 10.916-13.301 11.132 11.132 0 0 0-3.045-5.699 1.392 1.392 0 0 1 1.968-1.968 13.911 13.911 0 0 1-2.111 21.405 13.909 13.909 0 0 1-20.582-6.243A13.91 13.91 0 0 1 4.072 6.906a1.391 1.391 0 0 1 1.968 0z"/><path d="M13.92.044c.768 0 1.391.623 1.391 1.391v13.913a1.391 1.391 0 0 1-2.782 0V1.435c0-.768.623-1.391 1.391-1.391z"/></symbol><symbol id="arrow-right" viewBox="0 0 59 32"><path stroke-width="1.778" d="M0 16.889h56.889m0 0L44.855 1.778m12.034 15.111L44.52 30.222"/></symbol><symbol id="close" viewBox="0 0 32 32"><path d="M28.776 5.918 18.694 16l10.082 10.082a1.905 1.905 0 1 1-2.694 2.694L16 18.694 5.918 28.776a1.905 1.905 0 1 1-2.694-2.694L13.306 16 3.224 5.918a1.905 1.905 0 1 1 2.694-2.694L16 13.306 26.082 3.224a1.905 1.905 0 1 1 2.694 2.694zM18.694 16 16 13.306 13.306 16 16 18.694 18.694 16z"/><path d="M18.694 16 16 13.306 13.306 16 16 18.694 18.694 16z"/></symbol><symbol id="headline" viewBox="0 0 110 32"><path fill="#00544d" style="fill: var(--color1, #00544d)" d="M19.195 28.361v3.227h-16v-3.227h16zM4.005 1.646v29.943h-4.005v-29.943h4.005zM17.079 14.519v3.23h-13.883v-3.23h13.883zM18.987 1.646v3.246h-15.792v-3.246h15.794zM37.312 27.269v-27.269h3.858v31.589h-3.525l-0.331-4.32zM22.203 20.709v-0.432c0-1.698 0.208-3.241 0.624-4.626 0.427-1.399 1.029-2.599 1.806-3.6 0.747-0.959 1.682-1.735 2.754-2.28l0.046-0.021c1.093-0.549 2.311-0.823 3.653-0.823 1.41 0 2.642 0.247 3.694 0.741 1.065 0.48 1.966 1.186 2.697 2.119 0.747 0.917 1.335 2.027 1.765 3.33s0.727 2.777 0.891 4.423v1.89c-0.137 1.62-0.453 3.116-0.931 4.538l0.039-0.136c-0.408 1.277-1.009 2.385-1.781 3.351l0.016-0.021c-0.731 0.919-1.632 1.625-2.697 2.119-1.065 0.48-2.309 0.72-3.735 0.72-0.026 0-0.057 0-0.088 0-1.286 0-2.499-0.312-3.567-0.864l0.043 0.020c-1.116-0.595-2.050-1.39-2.785-2.346l-0.015-0.020c-0.771-1.020-1.387-2.21-1.784-3.496l-0.022-0.081c-0.396-1.31-0.625-2.815-0.625-4.373 0-0.046 0-0.091 0.001-0.137l-0 0.007zM26.066 20.277v0.434c0 1.109 0.107 2.151 0.329 3.125 0.235 0.974 0.594 1.829 1.079 2.571 0.485 0.741 1.102 1.323 1.847 1.746 0.747 0.411 1.641 0.617 2.679 0.617 1.271 0 2.315-0.267 3.131-0.8 0.832-0.535 1.495-1.241 1.993-2.119s0.885-1.831 1.161-2.857v-4.96c-0.184-0.83-0.434-1.557-0.753-2.246l0.028 0.067c-0.311-0.728-0.716-1.354-1.21-1.898l0.005 0.006c-0.491-0.562-1.093-1.014-1.773-1.324l-0.033-0.013c-0.704-0.329-1.543-0.494-2.51-0.494-1.051 0-1.959 0.219-2.72 0.658-0.758 0.439-1.38 1.035-1.834 1.748l-0.013 0.021c-0.482 0.741-0.843 1.605-1.079 2.592-0.211 0.913-0.332 1.962-0.332 3.038 0 0.030 0 0.061 0 0.091l-0-0.005zM76.222 1.646h3.984v20.256c0 2.249-0.505 4.121-1.515 5.616-0.999 1.472-2.363 2.627-3.966 3.347l-0.060 0.024c-1.557 0.702-3.376 1.111-5.29 1.111-0.045 0-0.089-0-0.134-0.001l0.007 0c-2.048 0-3.902-0.37-5.561-1.111-1.631-0.742-2.964-1.898-3.901-3.336l-0.021-0.035c-0.953-1.495-1.431-3.367-1.431-5.616v-20.256h3.963v20.256c0 1.563 0.29 2.853 0.871 3.867s1.39 1.769 2.427 2.263c1.051 0.491 2.27 0.738 3.653 0.738 1.397 0 2.615-0.247 3.653-0.738 1.051-0.494 1.867-1.248 2.448-2.263 0.583-1.015 0.873-2.304 0.873-3.867v-20.256zM97.223 4.297l-10.005 27.291h-4.087l11.518-29.943h2.635l-0.062 2.651zM105.605 31.589l-10.023-27.291-0.062-2.651h2.635l11.559 29.943h-4.11zM105.086 20.503v3.25h-16.971v-3.25h16.974z"></path></symbol><symbol id="icon-Icon-Person" viewBox="0 0 32 32">
<path d="M20 10c0 1.061-0.421 2.078-1.172 2.828s-1.768 1.172-2.828 1.172-2.078-0.421-2.828-1.172c-0.75-0.75-1.172-1.768-1.172-2.828s0.421-2.078 1.172-2.828c0.75-0.75 1.768-1.172 2.828-1.172s2.078 0.421 2.828 1.172c0.75 0.75 1.172 1.768 1.172 2.828zM16 16c1.591 0 3.117-0.632 4.243-1.757s1.757-2.651 1.757-4.243-0.632-3.117-1.757-4.243c-1.125-1.125-2.651-1.757-4.243-1.757s-3.117 0.632-4.243 1.757c-1.125 1.125-1.757 2.651-1.757 4.243s0.632 3.117 1.757 4.243c1.125 1.125 2.651 1.757 4.243 1.757zM28 26c0 2-2 2-2 2h-20c0 0-2 0-2-2s2-8 12-8c10 0 12 6 12 8zM26 25.992c-0.002-0.492-0.308-1.972-1.664-3.328-1.304-1.304-3.758-2.664-8.336-2.664-4.58 0-7.032 1.36-8.336 2.664-1.356 1.356-1.66 2.836-1.664 3.328h20z"></path>
</symbol></defs></svg>